<?xml version="1.0" encoding="UTF-8" standalone="no"?>
<svg viewBox="0 0 574 335" version="1.1" xmlns="http://www.w3.org/2000/svg" xmlns:xlink="http://www.w3.org/1999/xlink" xmlns:sketch="http://www.bohemiancoding.com/sketch/ns">
    <defs>
        <linearGradient x1="50%" y1="0%" x2="50%" y2="94.9176059%" id="linearGradient-1">
            <stop stop-color="#363636" offset="0%"></stop>
            <stop stop-color="#4D4D4D" offset="100%"></stop>
        </linearGradient>
        <path d="M0,10 L574,10 L574,152.992594 C574,164.042379 565.041516,173 553.991346,173 L20.0086545,173 C8.95817974,173 0,164.047969 0,152.992594 L0,10 Z" id="path-2"></path>
        <path id="path-4" d="M13.4064253,13.2634696 L13.4064253,87.5207632 L63.7113394,87.5207632"></path>
        <path id="path-5" d="M102.31594,32.0710466 L102.31594,79.3283403 L142.620855,79.3283403 L154.903762,89.4302784"></path>
        <ellipse id="path-6" cx="13.3923445" cy="13.1653321" rx="13.0449761" ry="12.8346679"></ellipse>
        <linearGradient x1="6.77183498%" y1="-8.88643775%" x2="79.3254635%" y2="50%" id="linearGradient-8">
            <stop stop-color="#FFFFFF" stop-opacity="0" offset="0%"></stop>
            <stop stop-color="#FFFFFF" offset="100%"></stop>
        </linearGradient>
        <ellipse id="path-9" cx="13.3923445" cy="13.1653321" rx="13.0449761" ry="12.8346679"></ellipse>
        <path id="path-11" d="M13.4064253,13.2634696 L13.4064253,87.5207632 L63.7113394,87.5207632"></path>
        <path id="path-12" d="M102.31594,32.0710466 L102.31594,79.3283403 L142.620855,79.3283403 L154.903762,89.4302784"></path>
        <ellipse id="path-13" cx="13.3923445" cy="13.1653321" rx="13.0449761" ry="12.8346679"></ellipse>
        <ellipse id="path-15" cx="13.3923445" cy="13.1653321" rx="13.0449761" ry="12.8346679"></ellipse>
        <ellipse id="path-17" cx="13.3923445" cy="13.1653321" rx="13.0449761" ry="12.8346679"></ellipse>
        <ellipse id="path-19" cx="13.3923445" cy="13.1653321" rx="13.0449761" ry="12.8346679"></ellipse>
        <ellipse id="path-21" cx="13.3923445" cy="13.1653321" rx="13.0449761" ry="12.8346679"></ellipse>
    </defs>
    <g id="Page-1" stroke="none" stroke-width="1" fill="none" fill-rule="evenodd" sketch:type="MSPage">
        <g id="[project_R]web-variant" sketch:type="MSLayerGroup" transform="translate(-943.000000, -1113.000000)">
            <g id="Project-R" transform="translate(0.000000, 338.000000)">
                <g id="clean-history" transform="translate(943.000000, 775.000000)">
                    <mask id="mask-3" sketch:name="element bg" fill="white">
                        <use xlink:href="#path-2"></use>
                    </mask>
                    <use id="element-bg" fill="url(#linearGradient-1)" sketch:type="MSShapeGroup" xlink:href="#path-2"></use>
                    <path d="M-36.5,13.5 L604.003052,13.5" id="Line" stroke="#979797" stroke-width="7" stroke-linecap="round" sketch:type="MSShapeGroup" mask="url(#mask-3)"></path>
                    <path d="M-29.5,162 L789.521973,162" id="Line" stroke="#707070" stroke-width="4" stroke-linecap="round" stroke-dasharray="10,12" sketch:type="MSShapeGroup" mask="url(#mask-3)"></path>
                    <g id="merge-blue-1" transform="translate(17.000000, 0.000000)">
                        <g id="Path-2227">
                            <use stroke="#20A5FF" stroke-width="7" sketch:type="MSShapeGroup" xlink:href="#path-4"></use>
                            <use stroke="none" xlink:href="#path-4"></use>
                        </g>
                        <g id="Path-2227">
                            <use stroke="#20A5FF" stroke-width="7" sketch:type="MSShapeGroup" transform="translate(128.609851, 60.750662) rotate(-90.000000) translate(-128.609851, -60.750662) " xlink:href="#path-5"></use>
                            <use stroke="none" xlink:href="#path-5"></use>
                        </g>
                        <path d="M150.724437,19.2560664 L150.724437,38.5307514 L172.617035,29.4513551 L150.724437,19.2560664 Z" id="Path-2228" fill="#20A5FF" sketch:type="MSShapeGroup" transform="translate(161.670736, 28.893409) rotate(-45.000000) translate(-161.670736, -28.893409) "></path>
                        <g id="blue">
                            <mask id="mask-7" sketch:name="blue" fill="white">
                                <use xlink:href="#path-6"></use>
                            </mask>
                            <use fill="#20A5FF" sketch:type="MSShapeGroup" xlink:href="#path-6"></use>
                            <ellipse id="Oval-51" opacity="0.268248601" fill="url(#linearGradient-8)" sketch:type="MSShapeGroup" mask="url(#mask-7)" cx="9.19109485" cy="8.33345709" rx="15.500501" ry="15.2506054"></ellipse>
                            <ellipse id="Oval-53" opacity="0.436042444" fill="#FFFFFF" sketch:type="MSShapeGroup" mask="url(#mask-7)" cx="11.0998818" cy="10.2020337" rx="3.68328736" ry="3.62390624"></ellipse>
                        </g>
                        <g id="blue" transform="translate(84.000000, 73.000000)">
                            <mask id="mask-10" sketch:name="blue" fill="white">
                                <use xlink:href="#path-9"></use>
                            </mask>
                            <use fill="#009EFF" sketch:type="MSShapeGroup" xlink:href="#path-9"></use>
                            <ellipse id="Oval-51" opacity="0.268248601" fill="url(#linearGradient-8)" sketch:type="MSShapeGroup" mask="url(#mask-10)" cx="9.19109485" cy="8.33345709" rx="15.500501" ry="15.2506054"></ellipse>
                            <ellipse id="Oval-53" opacity="0.436042444" fill="#FFFFFF" sketch:type="MSShapeGroup" mask="url(#mask-10)" cx="11.0998818" cy="10.2020337" rx="3.68328736" ry="3.62390624"></ellipse>
                        </g>
                        <path d="M59.7244374,77.2560664 L59.7244374,96.5307514 L81.6170346,87.4513551 L59.7244374,77.2560664 Z" id="Path-2228" fill="#20A5FF" sketch:type="MSShapeGroup"></path>
                    </g>
                    <g id="merge-blue-2" transform="translate(359.000000, 0.000000)">
                        <g id="Path-2227">
                            <use stroke="#20A5FF" stroke-width="7" sketch:type="MSShapeGroup" xlink:href="#path-11"></use>
                            <use stroke="none" xlink:href="#path-11"></use>
                        </g>
                        <g id="Path-2227">
                            <use stroke="#20A5FF" stroke-width="7" sketch:type="MSShapeGroup" transform="translate(128.609851, 60.750662) rotate(-90.000000) translate(-128.609851, -60.750662) " xlink:href="#path-12"></use>
                            <use stroke="none" xlink:href="#path-12"></use>
                        </g>
                        <path d="M150.724437,19.2560664 L150.724437,38.5307514 L172.617035,29.4513551 L150.724437,19.2560664 Z" id="Path-2228" fill="#20A5FF" sketch:type="MSShapeGroup" transform="translate(161.670736, 28.893409) rotate(-45.000000) translate(-161.670736, -28.893409) "></path>
                        <g id="blue">
                            <mask id="mask-14" sketch:name="blue" fill="white">
                                <use xlink:href="#path-13"></use>
                            </mask>
                            <use fill="#20A5FF" sketch:type="MSShapeGroup" xlink:href="#path-13"></use>
                            <ellipse id="Oval-51" opacity="0.268248601" fill="url(#linearGradient-8)" sketch:type="MSShapeGroup" mask="url(#mask-14)" cx="9.19109485" cy="8.33345709" rx="15.500501" ry="15.2506054"></ellipse>
                            <ellipse id="Oval-53" opacity="0.436042444" fill="#FFFFFF" sketch:type="MSShapeGroup" mask="url(#mask-14)" cx="11.0998818" cy="10.2020337" rx="3.68328736" ry="3.62390624"></ellipse>
                        </g>
                        <g id="blue" transform="translate(84.000000, 73.000000)">
                            <mask id="mask-16" sketch:name="blue" fill="white">
                                <use xlink:href="#path-15"></use>
                            </mask>
                            <use fill="#009EFF" sketch:type="MSShapeGroup" xlink:href="#path-15"></use>
                            <ellipse id="Oval-51" opacity="0.268248601" fill="url(#linearGradient-8)" sketch:type="MSShapeGroup" mask="url(#mask-16)" cx="9.19109485" cy="8.33345709" rx="15.500501" ry="15.2506054"></ellipse>
                            <ellipse id="Oval-53" opacity="0.436042444" fill="#FFFFFF" sketch:type="MSShapeGroup" mask="url(#mask-16)" cx="11.0998818" cy="10.2020337" rx="3.68328736" ry="3.62390624"></ellipse>
                        </g>
                        <path d="M59.7244374,77.2560664 L59.7244374,96.5307514 L81.6170346,87.4513551 L59.7244374,77.2560664 Z" id="Path-2228" fill="#20A5FF" sketch:type="MSShapeGroup"></path>
                    </g>
                    <g id="merge-yellow" transform="translate(189.000000, 1.000000)">
                        <path d="M13.4064253,13.2634696 L13.4064253,127.520763 L63.7113394,127.520763" id="Path-2227" stroke="#FFAA00" stroke-width="7" sketch:type="MSShapeGroup"></path>
                        <path d="M99.9302355,127.044573 L147.187529,127.044573 L147.187529,46.7396594 L157.289467,34.4567515" id="Path-2227" stroke="#FFAA00" stroke-width="7" sketch:type="MSShapeGroup"></path>
                        <path d="M150.724437,19.2560664 L150.724437,38.5307514 L172.617035,29.4513551 L150.724437,19.2560664 Z" id="Path-2228" fill="#FFAA00" sketch:type="MSShapeGroup" transform="translate(161.670736, 28.893409) rotate(-45.000000) translate(-161.670736, -28.893409) "></path>
                        <g id="blue">
                            <mask id="mask-18" sketch:name="blue" fill="white">
                                <use xlink:href="#path-17"></use>
                            </mask>
                            <use fill="#FFAA00" sketch:type="MSShapeGroup" xlink:href="#path-17"></use>
                            <ellipse id="Oval-51" opacity="0.268248601" fill="url(#linearGradient-8)" sketch:type="MSShapeGroup" mask="url(#mask-18)" cx="9.19109485" cy="8.33345709" rx="15.500501" ry="15.2506054"></ellipse>
                            <ellipse id="Oval-53" opacity="0.436042444" fill="#FFFFFF" sketch:type="MSShapeGroup" mask="url(#mask-18)" cx="11.0998818" cy="10.2020337" rx="3.68328736" ry="3.62390624"></ellipse>
                        </g>
                        <g id="blue" transform="translate(84.000000, 112.000000)">
                            <mask id="mask-20" sketch:name="blue" fill="white">
                                <use xlink:href="#path-19"></use>
                            </mask>
                            <use fill="#FFAA00" sketch:type="MSShapeGroup" xlink:href="#path-19"></use>
                            <ellipse id="Oval-51" opacity="0.268248601" fill="url(#linearGradient-8)" sketch:type="MSShapeGroup" mask="url(#mask-20)" cx="9.19109485" cy="8.33345709" rx="15.500501" ry="15.2506054"></ellipse>
                            <ellipse id="Oval-53" opacity="0.436042444" fill="#FFFFFF" sketch:type="MSShapeGroup" mask="url(#mask-20)" cx="11.0998818" cy="10.2020337" rx="3.68328736" ry="3.62390624"></ellipse>
                        </g>
                        <path d="M59.7244374,117.256066 L59.7244374,136.530751 L81.6170346,127.451355 L59.7244374,117.256066 Z" id="Path-2228" fill="#FFAA00" sketch:type="MSShapeGroup"></path>
                    </g>
                    <g id="black" transform="translate(529.000000, 1.000000)">
                        <mask id="mask-22" sketch:name="blue" fill="white">
                            <use xlink:href="#path-21"></use>
                        </mask>
                        <use id="blue" fill="#565656" sketch:type="MSShapeGroup" xlink:href="#path-21"></use>
                        <ellipse id="Oval-51" opacity="0.268248601" fill="url(#linearGradient-8)" sketch:type="MSShapeGroup" mask="url(#mask-22)" cx="9.19109485" cy="8.33345709" rx="15.500501" ry="15.2506054"></ellipse>
                        <ellipse id="Oval-53" opacity="0.436042444" fill="#FFFFFF" sketch:type="MSShapeGroup" mask="url(#mask-22)" cx="11.0998818" cy="10.2020337" rx="3.68328736" ry="3.62390624"></ellipse>
                    </g>
                    <path d="M180.152,308.08 C180.152,304.959984 180.715994,301.876015 181.844,298.828 C182.972006,295.779985 184.615989,293.056012 186.776,290.656 C188.936011,288.255988 191.575984,286.312007 194.696,284.824 C197.816016,283.335993 201.36798,282.592 205.352,282.592 C210.056024,282.592 214.123983,283.62399 217.556,285.688 C220.988017,287.75201 223.543992,290.439983 225.224,293.752 L217.592,299.008 C216.919997,297.567993 216.104005,296.356005 215.144,295.372 C214.183995,294.387995 213.152006,293.608003 212.048,293.032 C210.943994,292.455997 209.792006,292.036001 208.592,291.772 C207.391994,291.507999 206.216006,291.376 205.064,291.376 C202.567988,291.376 200.396009,291.879995 198.548,292.888 C196.699991,293.896005 195.164006,295.203992 193.94,296.812 C192.715994,298.420008 191.792003,300.24399 191.168,302.284 C190.543997,304.32401 190.232,306.35199 190.232,308.368 C190.232,310.624011 190.591996,312.79599 191.312,314.884 C192.032004,316.97201 193.051993,318.807992 194.372,320.392 C195.692007,321.976008 197.275991,323.247995 199.124,324.208 C200.972009,325.168005 202.999989,325.648 205.208,325.648 C206.360006,325.648 207.559994,325.504001 208.808,325.216 C210.056006,324.927999 211.243994,324.472003 212.372,323.848 C213.500006,323.223997 214.543995,322.420005 215.504,321.436 C216.464005,320.451995 217.231997,319.264007 217.808,317.872 L225.944,322.552 C225.127996,324.47201 223.964008,326.163993 222.452,327.628 C220.939992,329.092007 219.236009,330.327995 217.34,331.336 C215.443991,332.344005 213.416011,333.111997 211.256,333.64 C209.095989,334.168003 206.98401,334.432 204.92,334.432 C201.271982,334.432 197.936015,333.664008 194.912,332.128 C191.887985,330.591992 189.284011,328.588012 187.1,326.116 C184.915989,323.643988 183.212006,320.836016 181.988,317.692 C180.763994,314.547984 180.152,311.344016 180.152,308.08 L180.152,308.08 Z M231.632,281.44 L241.28,281.44 L241.28,321.904 C241.28,323.296007 241.615997,324.375996 242.288,325.144 C242.960003,325.912004 243.919994,326.296 245.168,326.296 C245.744003,326.296 246.379997,326.200001 247.076,326.008 C247.772003,325.815999 248.431997,325.576001 249.056,325.288 L250.352,332.632 C249.055994,333.256003 247.544009,333.735998 245.816,334.072 C244.087991,334.408002 242.528007,334.576 241.136,334.576 C238.111985,334.576 235.772008,333.772008 234.116,332.164 C232.459992,330.555992 231.632,328.264015 231.632,325.288 L231.632,281.44 Z M272.024,334.72 C268.999985,334.72 266.264012,334.204005 263.816,333.172 C261.367988,332.139995 259.280009,330.736009 257.552,328.96 C255.823991,327.183991 254.492005,325.120012 253.556,322.768 C252.619995,320.415988 252.152,317.944013 252.152,315.352 C252.152,312.663987 252.607995,310.132012 253.52,307.756 C254.432005,305.379988 255.751991,303.292009 257.48,301.492 C259.208009,299.691991 261.307988,298.264005 263.78,297.208 C266.252012,296.151995 269.023985,295.624 272.096,295.624 C275.168015,295.624 277.915988,296.151995 280.34,297.208 C282.764012,298.264005 284.827991,299.679991 286.532,301.456 C288.236009,303.232009 289.531996,305.295988 290.42,307.648 C291.308004,310.000012 291.752,312.447987 291.752,314.992 C291.752,315.616003 291.74,316.215997 291.716,316.792 C291.692,317.368003 291.632,317.847998 291.536,318.232 L262.376,318.232 C262.520001,319.720007 262.879997,321.039994 263.456,322.192 C264.032003,323.344006 264.775995,324.327996 265.688,325.144 C266.600005,325.960004 267.631994,326.583998 268.784,327.016 C269.936006,327.448002 271.135994,327.664 272.384,327.664 C274.30401,327.664 276.115991,327.196005 277.82,326.26 C279.524009,325.323995 280.687997,324.088008 281.312,322.552 L289.592,324.856 C288.199993,327.736014 285.980015,330.099991 282.932,331.948 C279.883985,333.796009 276.248021,334.72 272.024,334.72 L272.024,334.72 Z M281.816,311.968 C281.575999,309.135986 280.532009,306.868009 278.684,305.164 C276.835991,303.459991 274.592013,302.608 271.952,302.608 C270.655994,302.608 269.444006,302.835998 268.316,303.292 C267.187994,303.748002 266.192004,304.383996 265.328,305.2 C264.463996,306.016004 263.756003,306.999994 263.204,308.152 C262.651997,309.304006 262.328,310.575993 262.232,311.968 L281.816,311.968 Z M307.952,334.72 C306.127991,334.72 304.424008,334.420003 302.84,333.82 C301.255992,333.219997 299.888006,332.380005 298.736,331.3 C297.583994,330.219995 296.684003,328.960007 296.036,327.52 C295.387997,326.079993 295.064,324.496009 295.064,322.768 C295.064,320.991991 295.459996,319.348008 296.252,317.836 C297.044004,316.323992 298.147993,315.040005 299.564,313.984 C300.980007,312.927995 302.67199,312.100003 304.64,311.5 C306.60801,310.899997 308.767988,310.6 311.12,310.6 C312.800008,310.6 314.443992,310.743999 316.052,311.032 C317.660008,311.320001 319.087994,311.727997 320.336,312.256 L320.336,310.096 C320.336,307.599988 319.628007,305.680007 318.212,304.336 C316.795993,302.991993 314.696014,302.32 311.912,302.32 C309.89599,302.32 307.92801,302.679996 306.008,303.4 C304.08799,304.120004 302.12001,305.175993 300.104,306.568 L297.152,300.448 C302.000024,297.231984 307.231972,295.624 312.848,295.624 C318.272027,295.624 322.483985,296.955987 325.484,299.62 C328.484015,302.284013 329.984,306.135975 329.984,311.176 L329.984,322.912 C329.984,323.920005 330.163998,324.639998 330.524,325.072 C330.884002,325.504002 331.471996,325.744 332.288,325.792 L332.288,334 C330.655992,334.336002 329.240006,334.504 328.04,334.504 C326.215991,334.504 324.812005,334.096004 323.828,333.28 C322.843995,332.463996 322.232001,331.384007 321.992,330.04 L321.776,327.952 C320.095992,330.160011 318.056012,331.839994 315.656,332.992 C313.255988,334.144006 310.688014,334.72 307.952,334.72 L307.952,334.72 Z M310.688,327.664 C312.320008,327.664 313.867993,327.376003 315.332,326.8 C316.796007,326.223997 317.935996,325.456005 318.752,324.496 C319.808005,323.679996 320.336,322.768005 320.336,321.76 L320.336,317.44 C319.183994,317.007998 317.936007,316.660001 316.592,316.396 C315.247993,316.131999 313.952006,316 312.704,316 C310.207988,316 308.168008,316.563994 306.584,317.692 C304.999992,318.820006 304.208,320.247991 304.208,321.976 C304.208,323.608008 304.831994,324.963995 306.08,326.044 C307.328006,327.124005 308.863991,327.664 310.688,327.664 L310.688,327.664 Z M374.048,334 L364.4,334 L364.4,312.832 C364.4,309.807985 363.872005,307.600007 362.816,306.208 C361.759995,304.815993 360.296009,304.12 358.424,304.12 C357.463995,304.12 356.480005,304.311998 355.472,304.696 C354.463995,305.080002 353.516004,305.619997 352.628,306.316 C351.739996,307.012003 350.936004,307.839995 350.216,308.8 C349.495996,309.760005 348.968002,310.815994 348.632,311.968 L348.632,334 L338.984,334 L338.984,296.272 L347.696,296.272 L347.696,303.256 C349.088007,300.855988 351.103987,298.984007 353.744,297.64 C356.384013,296.295993 359.359983,295.624 362.672,295.624 C365.024012,295.624 366.943993,296.055996 368.432,296.92 C369.920007,297.784004 371.071996,298.911993 371.888,300.304 C372.704004,301.696007 373.267998,303.279991 373.58,305.056 C373.892002,306.832009 374.048,308.631991 374.048,310.456 L374.048,334 Z" id="Clean" fill="#FFAA00" sketch:type="MSShapeGroup"></path>
                    <path d="M414.02,298 L408.66,298 L408.66,286.24 C408.66,284.586658 408.353336,283.366671 407.74,282.58 C407.126664,281.793329 406.260006,281.4 405.14,281.4 C404.659998,281.4 404.153336,281.506666 403.62,281.72 C403.086664,281.933334 402.580002,282.233331 402.1,282.62 C401.619998,283.006669 401.180002,283.466664 400.78,284 C400.379998,284.533336 400.086668,285.119997 399.9,285.76 L399.9,298 L394.54,298 L394.54,268.8 L399.9,268.8 L399.9,280.92 C400.673337,279.559993 401.719993,278.513337 403.04,277.78 C404.360007,277.046663 405.819992,276.68 407.42,276.68 C408.780007,276.68 409.886662,276.913331 410.74,277.38 C411.593338,277.846669 412.259998,278.466663 412.74,279.24 C413.220002,280.013337 413.553332,280.893328 413.74,281.88 C413.926668,282.866672 414.02,283.879995 414.02,284.92 L414.02,298 Z M418.7,298 L418.7,277.04 L424.06,277.04 L424.06,298 L418.7,298 Z M418.7,274.12 L418.7,268.8 L424.06,268.8 L424.06,274.12 L418.7,274.12 Z M436.82,298.4 C435.059991,298.4 433.340008,298.120003 431.66,297.56 C429.979992,296.999997 428.540006,296.200005 427.34,295.16 L429.34,291.8 C430.620006,292.706671 431.866661,293.393331 433.08,293.86 C434.293339,294.326669 435.499994,294.56 436.7,294.56 C437.766672,294.56 438.606664,294.360002 439.22,293.96 C439.833336,293.559998 440.14,292.98667 440.14,292.24 C440.14,291.49333 439.780004,290.946668 439.06,290.6 C438.339996,290.253332 437.166675,289.853336 435.54,289.4 C434.179993,289.026665 433.020005,288.666668 432.06,288.32 C431.099995,287.973332 430.32667,287.580002 429.74,287.14 C429.15333,286.699998 428.726668,286.193336 428.46,285.62 C428.193332,285.046664 428.06,284.360004 428.06,283.56 C428.06,282.493328 428.266665,281.533338 428.68,280.68 C429.093335,279.826662 429.67333,279.100003 430.42,278.5 C431.16667,277.899997 432.039995,277.440002 433.04,277.12 C434.040005,276.799998 435.126661,276.64 436.3,276.64 C437.873341,276.64 439.34666,276.866664 440.72,277.32 C442.09334,277.773336 443.353328,278.506662 444.5,279.52 L442.34,282.76 C441.273328,281.959996 440.240005,281.373335 439.24,281 C438.239995,280.626665 437.246672,280.44 436.26,280.44 C435.353329,280.44 434.593336,280.626665 433.98,281 C433.366664,281.373335 433.06,281.973329 433.06,282.8 C433.06,283.173335 433.133333,283.479999 433.28,283.72 C433.426667,283.960001 433.659998,284.173332 433.98,284.36 C434.300002,284.546668 434.719997,284.726666 435.24,284.9 C435.760003,285.073334 436.406663,285.253332 437.18,285.44 C438.620007,285.813335 439.853328,286.186665 440.88,286.56 C441.906672,286.933335 442.746663,287.359998 443.4,287.84 C444.053337,288.320002 444.533332,288.87333 444.84,289.5 C445.146668,290.12667 445.3,290.879996 445.3,291.76 C445.3,293.813344 444.540008,295.433327 443.02,296.62 C441.499992,297.806673 439.433346,298.4 436.82,298.4 L436.82,298.4 Z M461.34,296.92 C460.619996,297.240002 459.740005,297.559998 458.7,297.88 C457.659995,298.200002 456.566672,298.36 455.42,298.36 C454.67333,298.36 453.973337,298.266668 453.32,298.08 C452.666663,297.893332 452.093336,297.593335 451.6,297.18 C451.106664,296.766665 450.713335,296.233337 450.42,295.58 C450.126665,294.926663 449.98,294.133338 449.98,293.2 L449.98,281.16 L447.22,281.16 L447.22,277.04 L449.98,277.04 L449.98,270.24 L455.34,270.24 L455.34,277.04 L459.74,277.04 L459.74,281.16 L455.34,281.16 L455.34,291.4 C455.34,292.14667 455.533331,292.673332 455.92,292.98 C456.306669,293.286668 456.779997,293.44 457.34,293.44 C457.900003,293.44 458.446664,293.346668 458.98,293.16 C459.513336,292.973332 459.939998,292.813334 460.26,292.68 L461.34,296.92 Z M473.3,298.4 C471.593325,298.4 470.060007,298.10667 468.7,297.52 C467.339993,296.93333 466.186671,296.140005 465.24,295.14 C464.293329,294.139995 463.566669,292.986673 463.06,291.68 C462.553331,290.373327 462.3,289.000007 462.3,287.56 C462.3,286.093326 462.553331,284.706673 463.06,283.4 C463.566669,282.093327 464.293329,280.940005 465.24,279.94 C466.186671,278.939995 467.339993,278.14667 468.7,277.56 C470.060007,276.97333 471.593325,276.68 473.3,276.68 C475.006675,276.68 476.533327,276.97333 477.88,277.56 C479.226673,278.14667 480.373329,278.939995 481.32,279.94 C482.266671,280.940005 482.993331,282.093327 483.5,283.4 C484.006669,284.706673 484.26,286.093326 484.26,287.56 C484.26,289.000007 484.006669,290.373327 483.5,291.68 C482.993331,292.986673 482.273338,294.139995 481.34,295.14 C480.406662,296.140005 479.260007,296.93333 477.9,297.52 C476.539993,298.10667 475.006675,298.4 473.3,298.4 L473.3,298.4 Z M467.82,287.56 C467.82,288.493338 467.959999,289.339996 468.24,290.1 C468.520001,290.860004 468.906664,291.519997 469.4,292.08 C469.893336,292.640003 470.47333,293.073332 471.14,293.38 C471.80667,293.686668 472.526663,293.84 473.3,293.84 C474.073337,293.84 474.79333,293.686668 475.46,293.38 C476.12667,293.073332 476.706664,292.640003 477.2,292.08 C477.693336,291.519997 478.079999,290.853337 478.36,290.08 C478.640001,289.306663 478.78,288.453338 478.78,287.52 C478.78,286.613329 478.640001,285.773337 478.36,285 C478.079999,284.226663 477.693336,283.560003 477.2,283 C476.706664,282.439997 476.12667,282.006668 475.46,281.7 C474.79333,281.393332 474.073337,281.24 473.3,281.24 C472.526663,281.24 471.80667,281.399998 471.14,281.72 C470.47333,282.040002 469.893336,282.479997 469.4,283.04 C468.906664,283.600003 468.520001,284.266663 468.24,285.04 C467.959999,285.813337 467.82,286.653329 467.82,287.56 L467.82,287.56 Z M500.34,281.68 C498.713325,281.706667 497.260006,282.019997 495.98,282.62 C494.699994,283.220003 493.780003,284.119994 493.22,285.32 L493.22,298 L487.86,298 L487.86,277.04 L492.78,277.04 L492.78,281.52 C493.153335,280.799996 493.593331,280.153336 494.1,279.58 C494.606669,279.006664 495.15333,278.506669 495.74,278.08 C496.32667,277.653331 496.919997,277.326668 497.52,277.1 C498.120003,276.873332 498.699997,276.76 499.26,276.76 L499.92,276.76 C500.066667,276.76 500.206666,276.773333 500.34,276.8 L500.34,281.68 Z M503.78,302.08 C504.233336,302.213334 504.673331,302.313333 505.1,302.38 C505.526669,302.446667 505.886665,302.48 506.18,302.48 C506.526668,302.48 506.846665,302.413334 507.14,302.28 C507.433335,302.146666 507.699999,301.913335 507.94,301.58 C508.180001,301.246665 508.419999,300.78667 508.66,300.2 C508.900001,299.61333 509.153332,298.880004 509.42,298 L501.14,277.04 L506.66,277.04 L512.34,293.36 L517.38,277.04 L522.42,277.04 L513.62,302.16 C513.113331,303.626674 512.246673,304.826662 511.02,305.76 C509.793327,306.693338 508.273342,307.16 506.46,307.16 C506.033331,307.16 505.600002,307.126667 505.16,307.06 C504.719998,306.993333 504.260002,306.880001 503.78,306.72 L503.78,302.08 Z" id="history" opacity="0.35103778" fill="#444444" sketch:type="MSShapeGroup"></path>
                </g>
            </g>
        </g>
    </g>
</svg>
