<?xml version="1.0" encoding="UTF-8" standalone="no"?>
<svg viewBox="0 0 306 449" version="1.1" xmlns="http://www.w3.org/2000/svg" xmlns:xlink="http://www.w3.org/1999/xlink" xmlns:sketch="http://www.bohemiancoding.com/sketch/ns">
    <title>ProjectR</title>
    <defs>
        <linearGradient x1="50%" y1="0%" x2="50%" y2="100%" id="linearGradient-1">
            <stop stop-color="#414141" offset="0%"></stop>
            <stop stop-color="#4A4A4A" offset="100%"></stop>
        </linearGradient>
        <polygon id="path-2" points="152.5 23 260.320163 85.25 260.320163 209.75 152.5 272 44.6798372 209.75 44.6798372 85.25 "></polygon>
        <ellipse id="path-3" cx="22.2583732" cy="21.7927461" rx="21.7416268" ry="21.7202073"></ellipse>
        <linearGradient x1="6.77183498%" y1="-8.88643775%" x2="79.3254635%" y2="50%" id="linearGradient-5">
            <stop stop-color="#FFFFFF" stop-opacity="0" offset="0%"></stop>
            <stop stop-color="#FFFFFF" offset="100%"></stop>
        </linearGradient>
        <ellipse id="path-6" cx="21.7416268" cy="21.7202073" rx="21.7416268" ry="21.7202073"></ellipse>
        <ellipse id="path-8" cx="22.3205742" cy="22.2797927" rx="21.7416268" ry="21.7202073"></ellipse>
    </defs>
    <g id="Page-1" stroke="none" stroke-width="1" fill="none" fill-rule="evenodd" sketch:type="MSPage">
        <g id="[project_R]web-variant" sketch:type="MSLayerGroup" transform="translate(-660.000000, -467.000000)">
            <g id="Project-R" transform="translate(0.000000, 338.000000)">
                <g id="projectR_main_logo" transform="translate(660.000000, 129.000000)">
                    <g id="site-title" transform="translate(10.000000, 363.000000)" sketch:type="MSShapeGroup">
                        <path d="M0,71 L0,19.88 L21.672,19.88 C24.0240118,19.88 26.19599,20.3719951 28.188,21.356 C30.18001,22.3400049 31.8959928,23.635992 33.336,25.244 C34.7760072,26.852008 35.9039959,28.6759898 36.72,30.716 C37.5360041,32.7560102 37.944,34.8079897 37.944,36.872 C37.944,39.0320108 37.5600038,41.1319898 36.792,43.172 C36.0239962,45.2120102 34.944007,47.0239921 33.552,48.608 C32.159993,50.1920079 30.4800098,51.4639952 28.512,52.424 C26.5439902,53.3840048 24.3840118,53.864 22.032,53.864 L9.936,53.864 L9.936,71 L0,71 Z M9.936,45.152 L21.456,45.152 C23.2800091,45.152 24.8039939,44.4080074 26.028,42.92 C27.2520061,41.4319926 27.864,39.4160127 27.864,36.872 C27.864,35.5759935 27.6720019,34.4120052 27.288,33.38 C26.9039981,32.3479948 26.4000031,31.4720036 25.776,30.752 C25.1519969,30.0319964 24.4200042,29.4920018 23.58,29.132 C22.7399958,28.7719982 21.8880043,28.592 21.024,28.592 L9.936,28.592 L9.936,45.152 Z M66.384,41.624 C63.4559854,41.6720002 60.8400115,42.2359946 58.536,43.316 C56.2319885,44.3960054 54.576005,46.0159892 53.568,48.176 L53.568,71 L43.92,71 L43.92,33.272 L52.776,33.272 L52.776,41.336 C53.4480034,40.0399935 54.2399954,38.8760052 55.152,37.844 C56.0640046,36.8119948 57.0479947,35.9120038 58.104,35.144 C59.1600053,34.3759962 60.2279946,33.788002 61.308,33.38 C62.3880054,32.971998 63.431995,32.768 64.44,32.768 C64.9680026,32.768 65.3639987,32.768 65.628,32.768 C65.8920013,32.768 66.1439988,32.7919998 66.384,32.84 L66.384,41.624 Z M87.336,71.72 C84.2639846,71.72 81.5040122,71.1920053 79.056,70.136 C76.6079878,69.0799947 74.5320085,67.652009 72.828,65.852 C71.1239915,64.051991 69.8160046,61.9760118 68.904,59.624 C67.9919954,57.2719882 67.536,54.800013 67.536,52.208 C67.536,49.5679868 67.9919954,47.0720118 68.904,44.72 C69.8160046,42.3679882 71.1239915,40.292009 72.828,38.492 C74.5320085,36.691991 76.6079878,35.2640053 79.056,34.208 C81.5040122,33.1519947 84.2639846,32.624 87.336,32.624 C90.4080154,32.624 93.1559879,33.1519947 95.58,34.208 C98.0040121,35.2640053 100.067991,36.691991 101.772,38.492 C103.476009,40.292009 104.783995,42.3679882 105.696,44.72 C106.608005,47.0720118 107.064,49.5679868 107.064,52.208 C107.064,54.800013 106.608005,57.2719882 105.696,59.624 C104.783995,61.9760118 103.488008,64.051991 101.808,65.852 C100.127992,67.652009 98.0640122,69.0799947 95.616,70.136 C93.1679878,71.1920053 90.4080154,71.72 87.336,71.72 L87.336,71.72 Z M77.472,52.208 C77.472,53.8880084 77.7239975,55.4119932 78.228,56.78 C78.7320025,58.1480068 79.4279956,59.335995 80.316,60.344 C81.2040044,61.352005 82.247994,62.1319972 83.448,62.684 C84.648006,63.2360028 85.943993,63.512 87.336,63.512 C88.728007,63.512 90.023994,63.2360028 91.224,62.684 C92.424006,62.1319972 93.4679956,61.352005 94.356,60.344 C95.2440044,59.335995 95.9399975,58.136007 96.444,56.744 C96.9480025,55.351993 97.2,53.8160084 97.2,52.136 C97.2,50.5039918 96.9480025,48.992007 96.444,47.6 C95.9399975,46.207993 95.2440044,45.008005 94.356,44 C93.4679956,42.991995 92.424006,42.2120028 91.224,41.66 C90.023994,41.1079972 88.728007,40.832 87.336,40.832 C85.943993,40.832 84.648006,41.1199971 83.448,41.696 C82.247994,42.2720029 81.2040044,43.063995 80.316,44.072 C79.4279956,45.080005 78.7320025,46.279993 78.228,47.672 C77.7239975,49.064007 77.472,50.5759918 77.472,52.208 L77.472,52.208 Z M110.448,85.112 C108.623991,85.112 106.896008,84.8360028 105.264,84.284 C103.631992,83.7319972 102.168006,82.8800058 100.872,81.728 L105.048,75.176 C105.576003,75.7040026 106.223996,76.0999987 106.992,76.364 C107.760004,76.6280013 108.527996,76.76 109.296,76.76 C110.544006,76.76 111.623995,76.3160044 112.536,75.428 C113.448005,74.5399956 113.904,73.400007 113.904,72.008 L113.904,33.272 L123.552,33.272 L123.552,71.288 C123.552,73.3040101 123.216003,75.1639915 122.544,76.868 C121.871997,78.5720085 120.948006,80.0359939 119.772,81.26 C118.595994,82.4840061 117.204008,83.4319966 115.596,84.104 C113.987992,84.7760034 112.272009,85.112 110.448,85.112 L110.448,85.112 Z M113.904,28.016 L113.904,18.44 L123.552,18.44 L123.552,28.016 L113.904,28.016 Z M149.832,71.72 C146.807985,71.72 144.072012,71.2040052 141.624,70.172 C139.175988,69.1399948 137.088009,67.7360089 135.36,65.96 C133.631991,64.1839911 132.300005,62.1200118 131.364,59.768 C130.427995,57.4159882 129.96,54.944013 129.96,52.352 C129.96,49.6639866 130.415995,47.1320119 131.328,44.756 C132.240005,42.3799881 133.559991,40.292009 135.288,38.492 C137.016009,36.691991 139.115988,35.2640053 141.588,34.208 C144.060012,33.1519947 146.831985,32.624 149.904,32.624 C152.976015,32.624 155.723988,33.1519947 158.148,34.208 C160.572012,35.2640053 162.635991,36.6799911 164.34,38.456 C166.044009,40.2320089 167.339996,42.2959882 168.228,44.648 C169.116004,47.0000118 169.56,49.4479873 169.56,51.992 C169.56,52.6160031 169.548,53.2159971 169.524,53.792 C169.5,54.3680029 169.44,54.8479981 169.344,55.232 L140.184,55.232 C140.328001,56.7200074 140.687997,58.0399942 141.264,59.192 C141.840003,60.3440058 142.583995,61.3279959 143.496,62.144 C144.408005,62.9600041 145.439994,63.5839978 146.592,64.016 C147.744006,64.4480022 148.943994,64.664 150.192,64.664 C152.11201,64.664 153.923991,64.1960047 155.628,63.26 C157.332009,62.3239953 158.495997,61.0880077 159.12,59.552 L167.4,61.856 C166.007993,64.7360144 163.788015,67.0999908 160.74,68.948 C157.691985,70.7960092 154.056021,71.72 149.832,71.72 L149.832,71.72 Z M159.624,48.968 C159.383999,46.1359858 158.340009,43.8680085 156.492,42.164 C154.643991,40.4599915 152.400013,39.608 149.76,39.608 C148.463994,39.608 147.252006,39.8359977 146.124,40.292 C144.995994,40.7480023 144.000004,41.3839959 143.136,42.2 C142.271996,43.0160041 141.564003,43.9999942 141.012,45.152 C140.459997,46.3040058 140.136,47.575993 140.04,48.968 L159.624,48.968 Z M173.088,52.136 C173.088,49.4959868 173.543995,47.0000118 174.456,44.648 C175.368005,42.2959882 176.687991,40.2320089 178.416,38.456 C180.144009,36.6799911 182.231988,35.2640053 184.68,34.208 C187.128012,33.1519947 189.887985,32.624 192.96,32.624 C197.088021,32.624 200.603985,33.5119911 203.508,35.288 C206.412015,37.0640089 208.583993,39.3919856 210.024,42.272 L200.592,45.152 C199.775996,43.759993 198.696007,42.6920037 197.352,41.948 C196.007993,41.2039963 194.520008,40.832 192.888,40.832 C191.495993,40.832 190.200006,41.1079972 189,41.66 C187.799994,42.2120028 186.756004,42.9799951 185.868,43.964 C184.979996,44.9480049 184.284003,46.135993 183.78,47.528 C183.275997,48.920007 183.024,50.4559916 183.024,52.136 C183.024,53.8160084 183.287997,55.351993 183.816,56.744 C184.344003,58.136007 185.051996,59.335995 185.94,60.344 C186.828004,61.352005 187.871994,62.1319972 189.072,62.684 C190.272006,63.2360028 191.543993,63.512 192.888,63.512 C194.616009,63.512 196.211993,63.0800043 197.676,62.216 C199.140007,61.3519957 200.159997,60.2960062 200.736,59.048 L210.168,61.928 C208.871994,64.8080144 206.736015,67.1599909 203.76,68.984 C200.783985,70.8080091 197.208021,71.72 193.032,71.72 C189.959985,71.72 187.200012,71.1920053 184.752,70.136 C182.303988,69.0799947 180.216009,67.652009 178.488,65.852 C176.759991,64.051991 175.428005,61.9640119 174.492,59.588 C173.555995,57.2119881 173.088,54.728013 173.088,52.136 L173.088,52.136 Z M238.68,69.056 C237.383994,69.6320029 235.800009,70.2079971 233.928,70.784 C232.055991,71.3600029 230.08801,71.648 228.024,71.648 C226.679993,71.648 225.420006,71.4800017 224.244,71.144 C223.067994,70.8079983 222.036004,70.2680037 221.148,69.524 C220.259996,68.7799963 219.552003,67.8200059 219.024,66.644 C218.495997,65.4679941 218.232,64.0400084 218.232,62.36 L218.232,40.688 L213.264,40.688 L213.264,33.272 L218.232,33.272 L218.232,21.032 L227.88,21.032 L227.88,33.272 L235.8,33.272 L235.8,40.688 L227.88,40.688 L227.88,59.12 C227.88,60.4640067 228.227997,61.4119972 228.924,61.964 C229.620003,62.5160028 230.471995,62.792 231.48,62.792 C232.488005,62.792 233.471995,62.6240017 234.432,62.288 C235.392005,61.9519983 236.159997,61.6640012 236.736,61.424 L238.68,69.056 Z" id="Project" fill="#444444"></path>
                        <path d="M254.388,52 L254.388,0.88 L276.996,0.88 C279.348012,0.88 281.51999,1.37199508 283.512,2.356 C285.50401,3.34000492 287.219993,4.63599196 288.66,6.244 C290.100007,7.85200804 291.227996,9.6759898 292.044,11.716 C292.860004,13.7560102 293.268,15.8079897 293.268,17.872 C293.268,21.1840166 292.440008,24.1959864 290.784,26.908 C289.127992,29.6200136 286.884014,31.575994 284.052,32.776 L295.716,52 L284.556,52 L274.116,34.864 L264.324,34.864 L264.324,52 L254.388,52 Z M264.324,26.152 L276.78,26.152 C277.692005,26.152 278.543996,25.9360022 279.336,25.504 C280.128004,25.0719978 280.811997,24.4840037 281.388,23.74 C281.964003,22.9959963 282.419998,22.120005 282.756,21.112 C283.092002,20.103995 283.26,19.0240058 283.26,17.872 C283.26,16.671994 283.068002,15.568005 282.684,14.56 C282.299998,13.551995 281.784003,12.6760037 281.136,11.932 C280.487997,11.1879963 279.744004,10.612002 278.904,10.204 C278.063996,9.79599796 277.212004,9.592 276.348,9.592 L264.324,9.592 L264.324,26.152 Z" id="R" fill="#FFAA00"></path>
                    </g>
                    <g id="logo">
                        <path d="M161.8912,2.99936202 L272.311649,66.750638 C278.05055,70.0639941 282.702849,78.1196942 282.702849,84.748724 L282.702849,212.251276 C282.702849,218.877988 278.052557,226.934847 272.311649,230.249362 L161.8912,294.000638 C156.152299,297.313994 146.849708,297.315153 141.1088,294.000638 L30.6883512,230.249362 C24.94945,226.936006 20.2971513,218.880306 20.2971513,212.251276 L20.2971513,84.748724 C20.2971513,78.1220117 24.9474429,70.0651529 30.6883512,66.750638 L141.1088,2.99936202 C146.847701,-0.31399413 156.150292,-0.315152886 161.8912,2.99936202 Z" id="Polygon-1" fill="url(#linearGradient-1)" sketch:type="MSShapeGroup"></path>
                        <g id="Polygon-2">
                            <use stroke="none" sketch:type="MSShapeGroup" xlink:href="#path-2"></use>
                            <use stroke="#5E5E5E" stroke-width="5" stroke-linecap="round" stroke-linejoin="round" stroke-dasharray="10,12" xlink:href="#path-2"></use>
                        </g>
                        <g id="circles" transform="translate(0.000000, 51.000000)">
                            <path d="M150.662296,89.6858734 L25.4347298,19.8704217 L21.0675693,17.4356919 L16.1981097,26.1700129 L20.5652702,28.6047427 L145.792837,98.4201945 L150.159997,100.854924 L155.029457,92.1206032 L150.662296,89.6858734" id="Line" fill="#FFAA00" sketch:type="MSShapeGroup"></path>
                            <path d="M156,241.066641 L156,99.8587241 L156,93.9253655 L146,93.9253655 L146,99.8587241 L146,241.066641 L146,247 L156,247 L156,241.066641" id="Path" fill="#20A5FF" sketch:type="MSShapeGroup"></path>
                            <path d="M283.607628,33.0529385 L279.11815,24.3341198 L273.640783,26.782701 L144.093889,92.9328038 L139.980762,95.381385 L146.192191,104.100204 L150.245973,101.651622 L278.189606,35.5015197 L283.607628,33.0529385 Z" id="Line" fill="#F95257" sketch:type="MSShapeGroup"></path>
                            <g id="red" transform="translate(259.000000, 3.000000)">
                                <mask id="mask-4" sketch:name="red" fill="white">
                                    <use xlink:href="#path-3"></use>
                                </mask>
                                <use fill="#FF3C47" sketch:type="MSShapeGroup" xlink:href="#path-3"></use>
                                <ellipse id="Oval-51" opacity="0.268248601" fill="url(#linearGradient-5)" sketch:type="MSShapeGroup" mask="url(#mask-4)" cx="15.2562905" cy="13.6157269" rx="25.8341683" ry="25.8087169"></ellipse>
                                <ellipse id="Oval-53" opacity="0.436042444" fill="#FFFFFF" sketch:type="MSShapeGroup" mask="url(#mask-4)" cx="18.437602" cy="16.7779336" rx="6.13881227" ry="6.1327644"></ellipse>
                            </g>
                            <g id="yellow">
                                <mask id="mask-7" sketch:name="yellow" fill="white">
                                    <use xlink:href="#path-6"></use>
                                </mask>
                                <use fill="#FF9F00" sketch:type="MSShapeGroup" xlink:href="#path-6"></use>
                                <ellipse id="Oval-51" opacity="0.268248601" fill="url(#linearGradient-5)" sketch:type="MSShapeGroup" mask="url(#mask-7)" cx="14.739544" cy="13.5431881" rx="25.8341683" ry="25.8087169"></ellipse>
                                <ellipse id="Oval-53" opacity="0.436042444" fill="#FFFFFF" sketch:type="MSShapeGroup" mask="url(#mask-7)" cx="17.9208556" cy="16.7053947" rx="6.13881227" ry="6.1327644"></ellipse>
                            </g>
                            <g id="blue" transform="translate(129.000000, 217.000000)">
                                <mask id="mask-9" sketch:name="blue" fill="white">
                                    <use xlink:href="#path-8"></use>
                                </mask>
                                <use fill="#009EFF" sketch:type="MSShapeGroup" xlink:href="#path-8"></use>
                                <ellipse id="Oval-51" opacity="0.268248601" fill="url(#linearGradient-5)" sketch:type="MSShapeGroup" mask="url(#mask-9)" cx="15.3184914" cy="14.1027735" rx="25.8341683" ry="25.8087169"></ellipse>
                                <ellipse id="Oval-53" opacity="0.436042444" fill="#FFFFFF" sketch:type="MSShapeGroup" mask="url(#mask-9)" cx="18.499803" cy="17.2649802" rx="6.13881227" ry="6.1327644"></ellipse>
                            </g>
                        </g>
                        <path d="M126,117 L126,148 L183.035077,148 L193,112 L126,117 Z" id="Path-2222" fill="#454545" sketch:type="MSShapeGroup"></path>
                        <path d="M100.9565,221 L100.9565,71.19 L167.2105,71.19 C174.103201,71.19 180.468304,72.6318189 186.306,75.5155 C192.143696,78.3991811 197.172479,82.1971431 201.3925,86.9095 C205.612521,91.6218569 208.918155,96.9671368 211.3095,102.9455 C213.700845,108.923863 214.8965,114.937303 214.8965,120.986 C214.8965,130.692049 212.470024,139.518794 207.617,147.4665 C202.763976,155.414206 196.187875,161.146316 187.8885,164.663 L222.0705,221 L189.3655,221 L158.7705,170.782 L130.0745,170.782 L130.0745,221 L100.9565,221 Z M130.0745,145.251 L166.5775,145.251 C169.25018,145.251 171.746988,144.618006 174.068,143.352 C176.389012,142.085994 178.393492,140.362844 180.0815,138.1825 C181.769508,136.002156 183.105828,133.435015 184.0905,130.481 C185.075172,127.526985 185.5675,124.362017 185.5675,120.986 C185.5675,117.469316 185.004839,114.234015 183.8795,111.28 C182.754161,108.325985 181.242009,105.758844 179.343,103.5785 C177.443991,101.398156 175.263679,99.7101726 172.802,98.5145 C170.340321,97.3188274 167.843513,96.721 165.3115,96.721 L130.0745,96.721 L130.0745,145.251 Z" id="R" fill="#FFFFFF" sketch:type="MSShapeGroup"></path>
                    </g>
                </g>
            </g>
        </g>
    </g>
</svg>
