<?xml version="1.0" encoding="UTF-8" standalone="no"?>
<svg width="141px" height="39px" viewBox="0 0 141 39" version="1.1" xmlns="http://www.w3.org/2000/svg" xmlns:xlink="http://www.w3.org/1999/xlink" xmlns:sketch="http://www.bohemiancoding.com/sketch/ns">
    <!-- Generator: Sketch 3.5.1 (25234) - http://www.bohemiancoding.com/sketch -->
    <title>slack-button</title>
    <desc>Created with Sketch.</desc>
    <defs></defs>
    <g id="Page-1" stroke="none" stroke-width="1" fill="none" fill-rule="evenodd" sketch:type="MSPage">
        <g id="[project_R]web-variant" sketch:type="MSLayerGroup" transform="translate(-766.000000, -1901.000000)">
            <g id="slack-button" transform="translate(766.000000, 1901.000000)" sketch:type="MSShapeGroup">
                <rect id="Rectangle-55" fill="#FFFFFF" x="0" y="0" width="141" height="39" rx="6"></rect>
                <path d="M48.738,15.004 L50.6,15.004 L54.45,25 L52.574,25 L51.636,22.354 L47.646,22.354 L46.708,25 L44.902,25 L48.738,15.004 Z M48.122,21.024 L51.174,21.024 L49.676,16.726 L49.634,16.726 L48.122,21.024 Z M61.996,25 L60.484,25 L60.484,24.02 L60.456,24.02 C60.2413323,24.4400021 59.9286687,24.7409991 59.518,24.923 C59.1073313,25.1050009 58.6733356,25.196 58.216,25.196 C57.6466638,25.196 57.1496688,25.0956677 56.725,24.895 C56.3003312,24.6943323 55.9480014,24.4213351 55.668,24.076 C55.3879986,23.7306649 55.1780007,23.3223357 55.038,22.851 C54.8979993,22.3796643 54.828,21.873336 54.828,21.332 C54.828,20.6786634 54.9166658,20.1140024 55.094,19.638 C55.2713342,19.1619976 55.5069985,18.7700015 55.801,18.462 C56.0950015,18.1539985 56.4309981,17.9276674 56.809,17.783 C57.1870019,17.6383326 57.571998,17.566 57.964,17.566 C58.1880011,17.566 58.4166655,17.5869998 58.65,17.629 C58.8833345,17.6710002 59.1073323,17.7386662 59.322,17.832 C59.5366677,17.9253338 59.7349991,18.0443326 59.917,18.189 C60.0990009,18.3336674 60.2506661,18.503999 60.372,18.7 L60.4,18.7 L60.4,15.004 L61.996,15.004 L61.996,25 Z M56.424,21.458 C56.424,21.7660015 56.4636663,22.0693318 56.543,22.368 C56.6223337,22.6666682 56.7436659,22.9326655 56.907,23.166 C57.0703342,23.3993345 57.2779987,23.5859993 57.53,23.726 C57.7820013,23.8660007 58.0806649,23.936 58.426,23.936 C58.7806684,23.936 59.0863321,23.8613341 59.343,23.712 C59.599668,23.5626659 59.8096659,23.3666679 59.973,23.124 C60.1363342,22.8813321 60.2576663,22.6083348 60.337,22.305 C60.4163337,22.0016651 60.456,21.6913349 60.456,21.374 C60.456,20.5713293 60.2763351,19.9460022 59.917,19.498 C59.5576649,19.0499978 59.0700031,18.826 58.454,18.826 C58.0806648,18.826 57.765668,18.9029992 57.509,19.057 C57.2523321,19.2110008 57.0423342,19.4116654 56.879,19.659 C56.7156659,19.9063346 56.5990004,20.1863318 56.529,20.499 C56.4589997,20.8116682 56.424,21.1313317 56.424,21.458 L56.424,21.458 Z M70.55,25 L69.038,25 L69.038,24.02 L69.01,24.02 C68.7953323,24.4400021 68.4826687,24.7409991 68.072,24.923 C67.6613313,25.1050009 67.2273356,25.196 66.77,25.196 C66.2006638,25.196 65.7036688,25.0956677 65.279,24.895 C64.8543312,24.6943323 64.5020014,24.4213351 64.222,24.076 C63.9419986,23.7306649 63.7320007,23.3223357 63.592,22.851 C63.4519993,22.3796643 63.382,21.873336 63.382,21.332 C63.382,20.6786634 63.4706658,20.1140024 63.648,19.638 C63.8253342,19.1619976 64.0609985,18.7700015 64.355,18.462 C64.6490015,18.1539985 64.9849981,17.9276674 65.363,17.783 C65.7410019,17.6383326 66.125998,17.566 66.518,17.566 C66.7420011,17.566 66.9706655,17.5869998 67.204,17.629 C67.4373345,17.6710002 67.6613323,17.7386662 67.876,17.832 C68.0906677,17.9253338 68.2889991,18.0443326 68.471,18.189 C68.6530009,18.3336674 68.8046661,18.503999 68.926,18.7 L68.954,18.7 L68.954,15.004 L70.55,15.004 L70.55,25 Z M64.978,21.458 C64.978,21.7660015 65.0176663,22.0693318 65.097,22.368 C65.1763337,22.6666682 65.2976659,22.9326655 65.461,23.166 C65.6243342,23.3993345 65.8319987,23.5859993 66.084,23.726 C66.3360013,23.8660007 66.6346649,23.936 66.98,23.936 C67.3346684,23.936 67.6403321,23.8613341 67.897,23.712 C68.153668,23.5626659 68.3636659,23.3666679 68.527,23.124 C68.6903342,22.8813321 68.8116663,22.6083348 68.891,22.305 C68.9703337,22.0016651 69.01,21.6913349 69.01,21.374 C69.01,20.5713293 68.8303351,19.9460022 68.471,19.498 C68.1116649,19.0499978 67.6240031,18.826 67.008,18.826 C66.6346648,18.826 66.319668,18.9029992 66.063,19.057 C65.8063321,19.2110008 65.5963342,19.4116654 65.433,19.659 C65.2696659,19.9063346 65.1530004,20.1863318 65.083,20.499 C65.0129997,20.8116682 64.978,21.1313317 64.978,21.458 L64.978,21.458 Z M75.45,17.762 L76.654,17.762 L76.654,15.592 L78.25,15.592 L78.25,17.762 L79.692,17.762 L79.692,18.952 L78.25,18.952 L78.25,22.816 C78.25,22.9840008 78.2569999,23.1286661 78.271,23.25 C78.2850001,23.3713339 78.3176664,23.4739996 78.369,23.558 C78.4203336,23.6420004 78.4973328,23.7049998 78.6,23.747 C78.7026672,23.7890002 78.8426658,23.81 79.02,23.81 C79.1320006,23.81 79.2439994,23.8076667 79.356,23.803 C79.4680006,23.7983333 79.5799994,23.7820001 79.692,23.754 L79.692,24.986 C79.5146658,25.0046668 79.3420008,25.0233332 79.174,25.042 C79.0059992,25.0606668 78.8333342,25.07 78.656,25.07 C78.2359979,25.07 77.897668,25.0303337 77.641,24.951 C77.3843321,24.8716663 77.1836674,24.7550008 77.039,24.601 C76.8943326,24.4469992 76.7963336,24.2533345 76.745,24.02 C76.6936664,23.7866655 76.6633334,23.5206682 76.654,23.222 L76.654,18.952 L75.45,18.952 L75.45,17.762 Z M84.158,25.196 C83.5793304,25.196 83.0636689,25.1003343 82.611,24.909 C82.1583311,24.7176657 81.7756682,24.4540017 81.463,24.118 C81.1503318,23.7819983 80.9123342,23.380669 80.749,22.914 C80.5856659,22.447331 80.504,21.9340028 80.504,21.374 C80.504,20.8233306 80.5856659,20.314669 80.749,19.848 C80.9123342,19.381331 81.1503318,18.9800017 81.463,18.644 C81.7756682,18.3079983 82.1583311,18.0443343 82.611,17.853 C83.0636689,17.6616657 83.5793304,17.566 84.158,17.566 C84.7366696,17.566 85.2523311,17.6616657 85.705,17.853 C86.1576689,18.0443343 86.5403318,18.3079983 86.853,18.644 C87.1656682,18.9800017 87.4036659,19.381331 87.567,19.848 C87.7303342,20.314669 87.812,20.8233306 87.812,21.374 C87.812,21.9340028 87.7303342,22.447331 87.567,22.914 C87.4036659,23.380669 87.1656682,23.7819983 86.853,24.118 C86.5403318,24.4540017 86.1576689,24.7176657 85.705,24.909 C85.2523311,25.1003343 84.7366696,25.196 84.158,25.196 L84.158,25.196 Z M84.158,23.936 C84.5126684,23.936 84.8206654,23.8613341 85.082,23.712 C85.3433346,23.5626659 85.5579992,23.3666679 85.726,23.124 C85.8940008,22.8813321 86.0176663,22.6083348 86.097,22.305 C86.1763337,22.0016651 86.216,21.6913349 86.216,21.374 C86.216,21.0659985 86.1763337,20.7580015 86.097,20.45 C86.0176663,20.1419985 85.8940008,19.8690012 85.726,19.631 C85.5579992,19.3929988 85.3433346,19.1993341 85.082,19.05 C84.8206654,18.9006659 84.5126684,18.826 84.158,18.826 C83.8033316,18.826 83.4953346,18.9006659 83.234,19.05 C82.9726654,19.1993341 82.7580008,19.3929988 82.59,19.631 C82.4219992,19.8690012 82.2983337,20.1419985 82.219,20.45 C82.1396663,20.7580015 82.1,21.0659985 82.1,21.374 C82.1,21.6913349 82.1396663,22.0016651 82.219,22.305 C82.2983337,22.6083348 82.4219992,22.8813321 82.59,23.124 C82.7580008,23.3666679 82.9726654,23.5626659 83.234,23.712 C83.4953346,23.8613341 83.8033316,23.936 84.158,23.936 L84.158,23.936 Z M94.658,21.682 L92.53,21.682 C92.5206666,22.2980031 92.6326655,22.8299978 92.866,23.278 C93.0993345,23.7260022 93.4143314,24.0946652 93.811,24.384 C94.2076687,24.6733348 94.6649974,24.885666 95.183,25.021 C95.7010026,25.156334 96.2353306,25.224 96.786,25.224 C97.4673367,25.224 98.0669974,25.1446675 98.585,24.986 C99.1030026,24.8273325 99.5369983,24.6056681 99.887,24.321 C100.237002,24.0363319 100.500666,23.698002 100.678,23.306 C100.855334,22.913998 100.944,22.4893356 100.944,22.032 C100.944,21.4719972 100.825001,21.0123351 100.587,20.653 C100.348999,20.2936649 100.066668,20.0066677 99.74,19.792 C99.4133317,19.5773323 99.084335,19.4210005 98.753,19.323 C98.421665,19.2249995 98.1626676,19.1573335 97.976,19.12 C97.3506635,18.9613325 96.8443353,18.8306672 96.457,18.728 C96.0696647,18.6253328 95.7663344,18.5226672 95.547,18.42 C95.3276656,18.3173328 95.180667,18.2053339 95.106,18.084 C95.031333,17.9626661 94.994,17.804001 94.994,17.608 C94.994,17.3933323 95.0406662,17.2160007 95.134,17.076 C95.2273338,16.9359993 95.3463326,16.8193338 95.491,16.726 C95.6356674,16.6326662 95.7966658,16.5673335 95.974,16.53 C96.1513342,16.4926665 96.3286658,16.474 96.506,16.474 C96.776668,16.474 97.0263322,16.4973331 97.255,16.544 C97.4836678,16.5906669 97.6866658,16.6699994 97.864,16.782 C98.0413342,16.8940006 98.1836661,17.047999 98.291,17.244 C98.3983339,17.440001 98.4613332,17.6873318 98.48,17.986 L100.608,17.986 C100.608,17.4073304 100.498334,16.915002 100.279,16.509 C100.059666,16.102998 99.7633352,15.7693346 99.39,15.508 C99.0166648,15.2466654 98.5896691,15.0576672 98.109,14.941 C97.6283309,14.8243327 97.1266693,14.766 96.604,14.766 C96.1559978,14.766 95.7080022,14.8266661 95.26,14.948 C94.8119978,15.0693339 94.4106684,15.2559987 94.056,15.508 C93.7013316,15.7600013 93.4143344,16.0749981 93.195,16.453 C92.9756656,16.8310019 92.866,17.2766641 92.866,17.79 C92.866,18.2473356 92.9523325,18.6369984 93.125,18.959 C93.2976675,19.2810016 93.5239986,19.5493323 93.804,19.764 C94.0840014,19.9786677 94.4013316,20.153666 94.756,20.289 C95.1106684,20.424334 95.4746648,20.5386662 95.848,20.632 C96.2120018,20.7346672 96.5713316,20.8279996 96.926,20.912 C97.2806684,20.9960004 97.5979986,21.0939994 97.878,21.206 C98.1580014,21.3180006 98.3843325,21.4579992 98.557,21.626 C98.7296675,21.7940008 98.816,22.013332 98.816,22.284 C98.816,22.5360013 98.7506673,22.7436658 98.62,22.907 C98.4893327,23.0703341 98.326001,23.1986662 98.13,23.292 C97.933999,23.3853338 97.7240011,23.4483332 97.5,23.481 C97.2759989,23.5136668 97.066001,23.53 96.87,23.53 C96.5806652,23.53 96.300668,23.4950003 96.03,23.425 C95.759332,23.3549996 95.5236677,23.2476674 95.323,23.103 C95.1223323,22.9583326 94.9613339,22.7693345 94.84,22.536 C94.7186661,22.3026655 94.658,22.0180017 94.658,21.682 L94.658,21.682 Z M102.092,15.004 L102.092,25 L104.08,25 L104.08,15.004 L102.092,15.004 Z M105.564,19.988 C105.592,19.521331 105.708666,19.1340015 105.914,18.826 C106.119334,18.5179985 106.380665,18.2706676 106.698,18.084 C107.015335,17.8973324 107.372331,17.7643337 107.769,17.685 C108.165669,17.6056663 108.564665,17.566 108.966,17.566 C109.330002,17.566 109.698665,17.5916664 110.072,17.643 C110.445335,17.6943336 110.785998,17.7946659 111.094,17.944 C111.402002,18.0933341 111.653999,18.3009987 111.85,18.567 C112.046001,18.8330013 112.144,19.1853311 112.144,19.624 L112.144,23.39 C112.144,23.7166683 112.162666,24.0293318 112.2,24.328 C112.237334,24.6266682 112.302666,24.8506659 112.396,25 L110.38,25 C110.342666,24.8879994 110.312333,24.7736672 110.289,24.657 C110.265667,24.5403327 110.249333,24.4213339 110.24,24.3 C109.922665,24.6266683 109.549335,24.8553327 109.12,24.986 C108.690665,25.1166673 108.252002,25.182 107.804,25.182 C107.458665,25.182 107.136668,25.1400004 106.838,25.056 C106.539332,24.9719996 106.278001,24.8413342 106.054,24.664 C105.829999,24.4866658 105.655001,24.262668 105.529,23.992 C105.402999,23.721332 105.34,23.3993352 105.34,23.026 C105.34,22.6153313 105.412333,22.2770013 105.557,22.011 C105.701667,21.7449987 105.888332,21.5326675 106.117,21.374 C106.345668,21.2153325 106.606999,21.0963337 106.901,21.017 C107.195001,20.9376663 107.491332,20.8746669 107.79,20.828 C108.088668,20.7813331 108.382665,20.7440001 108.672,20.716 C108.961335,20.6879999 109.217999,20.6460003 109.442,20.59 C109.666001,20.5339997 109.843333,20.4523339 109.974,20.345 C110.104667,20.2376661 110.165333,20.0813344 110.156,19.876 C110.156,19.6613323 110.121,19.4910006 110.051,19.365 C109.981,19.2389994 109.887667,19.1410003 109.771,19.071 C109.654333,19.0009996 109.519001,18.9543334 109.365,18.931 C109.210999,18.9076665 109.045334,18.896 108.868,18.896 C108.475998,18.896 108.168001,18.9799992 107.944,19.148 C107.719999,19.3160008 107.589334,19.595998 107.552,19.988 L105.564,19.988 Z M110.156,21.458 C110.072,21.532667 109.967001,21.5909998 109.841,21.633 C109.714999,21.6750002 109.579667,21.7099999 109.435,21.738 C109.290333,21.7660001 109.138667,21.7893332 108.98,21.808 C108.821333,21.8266668 108.662667,21.8499999 108.504,21.878 C108.354666,21.9060001 108.207667,21.9433331 108.063,21.99 C107.918333,22.0366669 107.792334,22.0996663 107.685,22.179 C107.577666,22.2583337 107.491334,22.3586661 107.426,22.48 C107.360666,22.6013339 107.328,22.7553324 107.328,22.942 C107.328,23.1193342 107.360666,23.2686661 107.426,23.39 C107.491334,23.5113339 107.579999,23.6069996 107.692,23.677 C107.804001,23.7470003 107.934666,23.7959999 108.084,23.824 C108.233334,23.8520001 108.387333,23.866 108.546,23.866 C108.938002,23.866 109.241332,23.8006673 109.456,23.67 C109.670668,23.5393327 109.829333,23.3830009 109.932,23.201 C110.034667,23.0189991 110.097667,22.8346676 110.121,22.648 C110.144333,22.4613324 110.156,22.3120006 110.156,22.2 L110.156,21.458 Z M118.612,20.31 L120.558,20.31 C120.53,19.843331 120.418001,19.4396684 120.222,19.099 C120.025999,18.7583316 119.771668,18.4736678 119.459,18.245 C119.146332,18.0163322 118.791669,17.8460006 118.395,17.734 C117.998331,17.6219994 117.585335,17.566 117.156,17.566 C116.567997,17.566 116.045336,17.663999 115.588,17.86 C115.130664,18.056001 114.743335,18.3289982 114.426,18.679 C114.108665,19.0290017 113.868334,19.4443309 113.705,19.925 C113.541666,20.4056691 113.46,20.9259972 113.46,21.486 C113.46,22.027336 113.548666,22.5243311 113.726,22.977 C113.903334,23.4296689 114.150665,23.8193317 114.468,24.146 C114.785335,24.4726683 115.170331,24.7269991 115.623,24.909 C116.075669,25.0910009 116.572664,25.182 117.114,25.182 C118.075338,25.182 118.863997,24.9300025 119.48,24.426 C120.096003,23.9219975 120.469333,23.1893381 120.6,22.228 L118.682,22.228 C118.616666,22.6760022 118.455668,23.0329987 118.199,23.299 C117.942332,23.5650013 117.576002,23.698 117.1,23.698 C116.791998,23.698 116.530668,23.6280007 116.316,23.488 C116.101332,23.3479993 115.931001,23.1683344 115.805,22.949 C115.678999,22.7296656 115.588,22.484668 115.532,22.214 C115.476,21.943332 115.448,21.6773346 115.448,21.416 C115.448,21.145332 115.476,20.8723347 115.532,20.597 C115.588,20.3216653 115.683666,20.0696678 115.819,19.841 C115.954334,19.6123322 116.129332,19.4256674 116.344,19.281 C116.558668,19.1363326 116.824665,19.064 117.142,19.064 C117.991338,19.064 118.481333,19.4793292 118.612,20.31 L118.612,20.31 Z M121.902,15.004 L121.902,25 L123.89,25 L123.89,22.508 L124.66,21.766 L126.648,25 L129.056,25 L126.018,20.422 L128.748,17.762 L126.396,17.762 L123.89,20.366 L123.89,15.004 L121.902,15.004 Z" id="Add-to-Slack" fill="#333333"></path>
                <g id="slack-1" transform="translate(13.000000, 9.000000)">
                    <g id="Group">
                        <path d="M14.2624918,1.36111475 C13.9281639,0.331983607 12.8229344,-0.231180328 11.7939836,0.103327869 C10.7648525,0.437655738 10.2016885,1.54288525 10.5361967,2.57183607 L15.6019672,18.1579344 C15.9498197,19.1192623 16.9883279,19.6595246 17.9851803,19.3726229 C19.0249508,19.0732787 19.6588033,17.9689508 19.327,16.9477541 C19.3143771,16.9088033 14.2624918,1.36111475 14.2624918,1.36111475" id="Shape" fill="#DFA22F"></path>
                        <path d="M6.41318033,3.9114918 C6.07867213,2.88254099 4.97344262,2.31937705 3.9444918,2.65370492 C2.91536065,2.98803279 2.35219672,4.09326229 2.68670492,5.12239344 L7.75247541,20.7084918 C8.10032787,21.6698197 9.13883609,22.210082 10.1356885,21.923 C11.175459,21.6238361 11.8093115,20.5195082 11.4775082,19.4981311 C11.4648853,19.4593607 6.41318033,3.9114918 6.41318033,3.9114918" id="Shape" fill="#3CB187"></path>
                        <path d="M20.6388853,14.2695246 C21.6680164,13.9351967 22.231,12.8299672 21.8966721,11.8008361 C21.5623443,10.7718853 20.4571147,10.2087213 19.4281639,10.5430492 L3.84206557,15.609 C2.88073771,15.9566721 2.34047541,16.9951803 2.62737705,17.9920328 C2.92672131,19.0318033 4.03104918,19.6656557 5.0522459,19.3338525 C5.09119672,19.3212295 20.6388853,14.2695246 20.6388853,14.2695246" id="Shape" fill="#CE1E5B"></path>
                        <path d="M7.0904918,18.6716885 C8.10501639,18.3420492 9.41257376,17.9171967 10.8157049,17.4613279 C10.4860656,16.4468033 10.0612131,15.1390656 9.60516391,13.7357541 L5.87977049,14.9466557 L7.0904918,18.6716885" id="Shape" fill="#392538"></path>
                        <path d="M14.9399836,16.1211311 C16.3483443,15.6636393 17.6573443,15.2382459 18.6651967,14.9107705 C18.3355574,13.8962459 17.9105246,12.5881475 17.4544754,11.1844754 L13.729082,12.3953771 L14.9399836,16.1211311" id="Shape" fill="#BB242A"></path>
                        <path d="M18.0885082,6.42003279 C19.117459,6.08570492 19.6806229,4.98047541 19.3462951,3.95134426 C19.0119672,2.92239344 17.9067377,2.35922951 16.8776065,2.69355738 L1.2915082,7.7595082 C0.330180328,8.10718033 -0.210081967,9.14568849 0.077,10.142541 C0.376163935,11.1823115 1.4804918,11.8161639 2.50186885,11.4843607 C2.54063935,11.4717377 18.0885082,6.42003279 18.0885082,6.42003279" id="Shape" fill="#72C5CD"></path>
                        <path d="M4.53939344,10.8223771 C5.55391803,10.4927377 6.86183607,10.0677049 8.26514754,9.61183609 C7.80765574,8.20329508 7.38226229,6.89429508 7.05478689,5.88626229 L3.3284918,7.09734426 L4.53939344,10.8223771" id="Shape" fill="#248C73"></path>
                        <path d="M12.3887049,8.272 C13.7974262,7.81432787 15.1066065,7.38893443 16.1146393,7.06127869 C15.6569672,5.65255738 15.2315738,4.34319672 14.903918,3.33498361 L11.1778033,4.54606557 L12.3887049,8.272" id="Shape" fill="#62803A"></path>
                    </g>
                </g>
            </g>
        </g>
    </g>
</svg>