<?xml version="1.0" encoding="UTF-8" standalone="no"?>
<svg width="308px" height="38px" viewBox="0 0 308 38" version="1.1" xmlns="http://www.w3.org/2000/svg" xmlns:xlink="http://www.w3.org/1999/xlink" xmlns:sketch="http://www.bohemiancoding.com/sketch/ns">
    <!-- Generator: Sketch 3.5.1 (25234) - http://www.bohemiancoding.com/sketch -->
    <title>slack-title</title>
    <desc>Created with Sketch.</desc>
    <defs></defs>
    <g id="Page-1" stroke="none" stroke-width="1" fill="none" fill-rule="evenodd" sketch:type="MSPage">
        <g id="[project_R]web-variant" sketch:type="MSLayerGroup" transform="translate(-683.000000, -1701.000000)">
            <g id="slack-title" transform="translate(683.000000, 1701.000000)" sketch:type="MSShapeGroup">
                <path d="M0.532827247,22.0485057 C0.748261821,27.2581054 5.01778337,30.4700391 11.5199905,30.4700391 C18.355142,30.4700391 22.6638334,27.1014257 22.6638334,21.7351464 C22.6638334,17.5243797 20.2352982,15.1545994 14.4969046,13.842407 L11.245801,13.0981785 C7.7792629,12.2756101 6.34956073,11.1788523 6.34956073,9.29869597 C6.34956073,6.94850063 8.50390647,5.38170373 11.6962552,5.38170373 C14.9277738,5.38170373 17.1408744,6.96808559 17.3758939,9.61205535 L22.1937944,9.61205535 C22.0762846,4.6374752 17.9634427,1.26886187 11.7354251,1.26886187 C5.58574725,1.26886187 1.21830089,4.65706016 1.21830089,9.67081024 C1.21830089,13.7053123 3.68600601,16.2121873 8.89560569,17.4068699 L12.5579934,18.2686082 C16.1224564,19.1107616 17.5717435,20.2858592 17.5717435,22.3226952 C17.5717435,24.6728905 15.2019632,26.3571972 11.79418,26.3571972 C8.34722678,26.3571972 5.74242694,24.6533056 5.42906756,22.0485057 L0.532827247,22.0485057 Z M26.5808257,30 L31.457481,30 L31.457481,0.426708534 L26.5808257,0.426708534 L26.5808257,30 Z M43.8939314,26.4942919 C41.6220759,26.4942919 40.1336189,25.3975341 40.1336189,23.6740575 C40.1336189,21.930996 41.5437361,20.912578 44.2072908,20.7363133 L49.1035311,20.422954 L49.1035311,22.0485057 C49.1035311,24.6533056 46.8512606,26.4942919 43.8939314,26.4942919 L43.8939314,26.4942919 Z M42.4642293,30.2350195 C45.3040486,30.2350195 47.9480184,28.8444873 49.1231161,26.5530468 L49.2406258,26.5530468 L49.2406258,30 L53.9214316,30 L53.9214316,15.330864 C53.9214316,11.0809274 50.4548934,8.29986295 45.108199,8.29986295 C40.074864,8.29986295 36.4320612,11.1005124 36.3145514,15.0175047 L40.8190925,15.0175047 C41.1520368,13.2940281 42.7384187,12.1385154 44.9515193,12.1385154 C47.5759041,12.1385154 49.1035311,13.3723679 49.1035311,15.6442234 L49.1035311,17.2110203 L43.5414021,17.5439647 C38.1555378,17.876909 35.2373786,20.0508397 35.2373786,23.8699071 C35.2373786,27.6693896 38.2534626,30.2350195 42.4642293,30.2350195 L42.4642293,30.2350195 Z M77.1296106,16.1730174 C76.7966663,11.7664011 73.2909582,8.29986295 67.6896593,8.29986295 C61.5008116,8.29986295 57.4858945,12.5889695 57.4858945,19.2870262 C57.4858945,26.1221777 61.5203965,30.3133594 67.7288292,30.3133594 C73.0755237,30.3133594 76.7379114,27.2385205 77.1491956,22.5577147 L72.5467297,22.5577147 C72.0962756,24.9862499 70.372799,26.3376122 67.7679992,26.3376122 C64.5560655,26.3376122 62.4408897,23.7328124 62.4408897,19.2870262 C62.4408897,14.9783347 64.5364806,12.2756101 67.7484142,12.2756101 C70.4903088,12.2756101 72.1746154,13.9207468 72.5271447,16.1730174 L77.1296106,16.1730174 Z M85.6294838,17.5831346 L85.5707289,17.5831346 L85.5707289,0.426708534 L80.6940736,0.426708534 L80.6940736,30 L85.5707289,30 L85.5707289,22.5185448 L87.2942055,20.7754833 L94.1881119,30 L99.8285807,30 L90.8194985,17.8181541 L99.4760514,8.59363737 L93.8159976,8.59363737 L85.6294838,17.5831346 Z" id="Slack" fill="#53B78A"></path>
                <path d="M111.736237,30 L116.612892,30 L116.612892,8.59363737 L111.736237,8.59363737 L111.736237,30 Z M114.164772,5.87132776 C115.692399,5.87132776 116.906667,4.69623008 116.906667,3.18818807 C116.906667,1.66056109 115.692399,0.505048379 114.164772,0.505048379 C112.65673,0.505048379 111.422878,1.66056109 111.422878,3.18818807 C111.422878,4.69623008 112.65673,5.87132776 114.164772,5.87132776 L114.164772,5.87132776 Z M121.274113,30 L126.150769,30 L126.150769,17.7202293 C126.150769,14.5866355 127.952585,12.4714597 130.949084,12.4714597 C133.886828,12.4714597 135.336115,14.1949363 135.336115,17.2501902 L135.336115,30 L140.212771,30 L140.212771,16.2905271 C140.212771,11.3355319 137.510046,8.33903287 132.770486,8.33903287 C129.480212,8.33903287 127.325866,9.70998016 126.052844,12.31478 L125.954919,12.31478 L125.954919,8.59363737 L121.274113,8.59363737 L121.274113,30 Z M146.009919,3.81490683 L146.009919,8.59363737 L143.09176,8.59363737 L143.09176,12.3735349 L146.009919,12.3735349 L146.009919,24.3203612 C146.009919,28.4527881 147.811736,30.0979248 152.355447,30.0979248 C153.39345,30.0979248 154.392283,30.019585 154.921077,29.9020752 L154.921077,26.1613476 C154.607717,26.2005175 153.941829,26.2592724 153.47179,26.2592724 C151.709143,26.2592724 150.886575,25.4171191 150.886575,23.6544726 L150.886575,12.3735349 L154.940662,12.3735349 L154.940662,8.59363737 L150.886575,8.59363737 L150.886575,3.81490683 L146.009919,3.81490683 Z M167.533792,12.0993454 C170.432366,12.0993454 172.430032,14.1361814 172.527957,17.2306053 L162.382947,17.2306053 C162.598381,14.1753513 164.674387,12.0993454 167.533792,12.0993454 L167.533792,12.0993454 Z M172.547542,23.6348876 C171.979578,25.3975341 170.158177,26.5138769 167.807981,26.5138769 C164.537293,26.5138769 162.343777,24.2224364 162.343777,20.7754833 L162.343777,20.4817088 L177.326272,20.4817088 L177.326272,18.875742 C177.326272,12.3931198 173.52679,8.29986295 167.533792,8.29986295 C161.403699,8.29986295 157.467122,12.6477243 157.467122,19.384951 C157.467122,26.1221777 161.384114,30.3133594 167.710056,30.3133594 C172.704221,30.3133594 176.503704,27.5910498 177.130423,23.6348876 L172.547542,23.6348876 Z M190.350272,25.9850829 C187.138338,25.9850829 185.062332,23.3998681 185.062332,19.2478563 C185.062332,15.0762595 187.138338,12.4127048 190.350272,12.4127048 C193.601375,12.4127048 195.736136,15.1350144 195.736136,19.2478563 C195.736136,23.3606981 193.601375,25.9850829 190.350272,25.9850829 L190.350272,25.9850829 Z M190.350272,37.7556446 C196.637044,37.7556446 200.612791,34.5828809 200.612791,29.471206 L200.612791,8.59363737 L195.834061,8.59363737 L195.834061,12.1972702 L195.736136,12.1972702 C194.502283,9.82748993 192.054163,8.35861783 188.998909,8.35861783 C183.55429,8.35861783 180.068167,12.5889695 180.068167,19.2282713 C180.068167,25.7696484 183.613045,29.9216602 188.900984,29.9216602 C191.975823,29.9216602 194.482698,28.491958 195.618626,26.2005175 L195.736136,26.2005175 L195.736136,29.8433203 C195.736136,32.4872901 193.679715,34.1128419 190.506951,34.1128419 C188.058831,34.1128419 186.139505,33.1531788 185.728221,31.6059668 L180.851565,31.6059668 C181.22368,35.3466944 185.003577,37.7556446 190.350272,37.7556446 L190.350272,37.7556446 Z M205.136917,30 L210.013573,30 L210.013573,17.5831346 C210.013573,14.5670505 211.737049,12.7064792 214.596454,12.7064792 C215.438607,12.7064792 216.20242,12.823989 216.613705,12.9806687 L216.613705,8.55446745 C216.24159,8.43695768 215.693211,8.35861783 215.046908,8.35861783 C212.520448,8.35861783 210.601121,9.80790497 209.915648,12.31478 L209.817723,12.31478 L209.817723,8.59363737 L205.136917,8.59363737 L205.136917,30 Z M226.876224,26.4942919 C224.604369,26.4942919 223.115912,25.3975341 223.115912,23.6740575 C223.115912,21.930996 224.526029,20.912578 227.189584,20.7363133 L232.085824,20.422954 L232.085824,22.0485057 C232.085824,24.6533056 229.833553,26.4942919 226.876224,26.4942919 L226.876224,26.4942919 Z M225.446522,30.2350195 C228.286341,30.2350195 230.930311,28.8444873 232.105409,26.5530468 L232.222919,26.5530468 L232.222919,30 L236.903724,30 L236.903724,15.330864 C236.903724,11.0809274 233.437186,8.29986295 228.090492,8.29986295 C223.057157,8.29986295 219.414354,11.1005124 219.296844,15.0175047 L223.801385,15.0175047 C224.13433,13.2940281 225.720712,12.1385154 227.933812,12.1385154 C230.558197,12.1385154 232.085824,13.3723679 232.085824,15.6442234 L232.085824,17.2110203 L226.523695,17.5439647 C221.137831,17.876909 218.219671,20.0508397 218.219671,23.8699071 C218.219671,27.6693896 221.235755,30.2350195 225.446522,30.2350195 L225.446522,30.2350195 Z M242.740043,3.81490683 L242.740043,8.59363737 L239.821884,8.59363737 L239.821884,12.3735349 L242.740043,12.3735349 L242.740043,24.3203612 C242.740043,28.4527881 244.541859,30.0979248 249.08557,30.0979248 C250.123573,30.0979248 251.122406,30.019585 251.6512,29.9020752 L251.6512,26.1613476 C251.337841,26.2005175 250.671952,26.2592724 250.201913,26.2592724 C248.439267,26.2592724 247.616698,25.4171191 247.616698,23.6544726 L247.616698,12.3735349 L251.670785,12.3735349 L251.670785,8.59363737 L247.616698,8.59363737 L247.616698,3.81490683 L242.740043,3.81490683 Z M255.626947,30 L260.503603,30 L260.503603,8.59363737 L255.626947,8.59363737 L255.626947,30 Z M258.055483,5.87132776 C259.58311,5.87132776 260.797377,4.69623008 260.797377,3.18818807 C260.797377,1.66056109 259.58311,0.505048379 258.055483,0.505048379 C256.547441,0.505048379 255.313588,1.66056109 255.313588,3.18818807 C255.313588,4.69623008 256.547441,5.87132776 258.055483,5.87132776 L258.055483,5.87132776 Z M274.565605,30.3133594 C280.911132,30.3133594 284.886879,26.1221777 284.886879,19.2870262 C284.886879,12.5106296 280.871962,8.29986295 274.565605,8.29986295 C268.298417,8.29986295 264.263915,12.5302146 264.263915,19.2870262 C264.263915,26.1221777 268.259247,30.3133594 274.565605,30.3133594 L274.565605,30.3133594 Z M274.565605,26.4159521 C271.236161,26.4159521 269.21891,23.7915673 269.21891,19.3066112 C269.21891,14.84124 271.236161,12.1972702 274.565605,12.1972702 C277.914633,12.1972702 279.931884,14.821655 279.931884,19.3066112 C279.931884,23.7915673 277.934218,26.4159521 274.565605,26.4159521 L274.565605,26.4159521 Z M288.510097,30 L293.386753,30 L293.386753,17.7202293 C293.386753,14.5866355 295.188569,12.4714597 298.185068,12.4714597 C301.122812,12.4714597 302.572099,14.1949363 302.572099,17.2501902 L302.572099,30 L307.448755,30 L307.448755,16.2905271 C307.448755,11.3355319 304.74603,8.33903287 300.006469,8.33903287 C296.716196,8.33903287 294.56185,9.70998016 293.288828,12.31478 L293.190903,12.31478 L293.190903,8.59363737 L288.510097,8.59363737 L288.510097,30 Z" id="integration" fill="#FFFFFF"></path>
            </g>
        </g>
    </g>
</svg>