<?xml version="1.0" encoding="UTF-8" standalone="no"?>
<svg width="202px" height="56px" viewBox="0 0 202 56" version="1.1" xmlns="http://www.w3.org/2000/svg" xmlns:xlink="http://www.w3.org/1999/xlink" xmlns:sketch="http://www.bohemiancoding.com/sketch/ns">
    <!-- Generator: Sketch 3.5.1 (25234) - http://www.bohemiancoding.com/sketch -->
    <title>start-button</title>
    <desc>Created with Sketch.</desc>
    <defs>
        <linearGradient x1="50%" y1="0%" x2="50%" y2="100%" id="linearGradient-1">
            <stop stop-color="#FBDA61" offset="0%"></stop>
            <stop stop-color="#F7A11C" offset="100%"></stop>
        </linearGradient>
    </defs>
    <g id="Page-1" stroke="none" stroke-width="1" fill="none" fill-rule="evenodd" sketch:type="MSPage">
        <g id="[project_R]web-variant" sketch:type="MSLayerGroup" transform="translate(-736.000000, -1559.000000)">
            <g id="start-button" transform="translate(736.224104, 1559.333846)" sketch:type="MSShapeGroup">
                <rect id="Rectangle-56" fill="url(#linearGradient-1)" x="0" y="0" width="201.666667" height="55" rx="6"></rect>
                <path d="M58.0256548,23.5951786 C57.864146,23.417519 57.6299619,23.227749 57.3230952,23.0258631 C57.0162286,22.8239772 56.6568771,22.6342072 56.2450298,22.4565476 C55.8331825,22.278888 55.3809648,22.1335323 54.8883631,22.0204762 C54.3957614,21.9074201 53.8910542,21.8508929 53.3742262,21.8508929 C52.2275141,21.8508929 51.3836436,22.0608511 50.8425893,22.4807738 C50.301535,22.9006965 50.0310119,23.4821193 50.0310119,24.2250595 C50.0310119,24.6449823 50.1158027,24.9881832 50.2853869,25.2546726 C50.4549711,25.521162 50.7174189,25.7553462 51.0727381,25.9572321 C51.4280573,26.1591181 51.8721997,26.336775 52.4051786,26.4902083 C52.9381574,26.6436416 53.5599568,26.8091856 54.2705952,26.9868452 C55.1427425,27.1968066 55.9300858,27.4309908 56.6326488,27.6894048 C57.3352118,27.9478188 57.9287476,28.2627561 58.4132738,28.6342262 C58.8978,29.0056963 59.2733022,29.4619517 59.5397917,30.003006 C59.8062811,30.5440602 59.9395238,31.2021985 59.9395238,31.9774405 C59.9395238,32.8495877 59.7739798,33.6005921 59.4428869,34.2304762 C59.111794,34.8603603 58.6595763,35.3731429 58.0862202,35.7688393 C57.5128642,36.1645357 56.8466506,36.4552471 56.0875595,36.6409821 C55.3284684,36.8267172 54.5128615,36.9195833 53.6407143,36.9195833 C52.3324935,36.9195833 51.0687065,36.7217381 49.8493155,36.3260417 C48.6299245,35.9303452 47.5276438,35.3529601 46.5424405,34.593869 L47.7779762,32.2681548 C47.9879376,32.4781161 48.2907619,32.7123003 48.6864583,32.9707143 C49.0821548,33.2291283 49.5424478,33.4673501 50.0673512,33.6853869 C50.5922546,33.9034237 51.1615644,34.089156 51.7752976,34.2425893 C52.3890308,34.3960226 53.0269808,34.4727381 53.6891667,34.4727381 C54.7551244,34.4727381 55.5788066,34.2870058 56.1602381,33.9155357 C56.7416696,33.5440656 57.032381,32.9949441 57.032381,32.2681548 C57.032381,31.8320812 56.9233642,31.4686919 56.7053274,31.1779762 C56.4872906,30.8872605 56.1763909,30.632888 55.772619,30.4148512 C55.3688472,30.1968144 54.8762529,29.9989691 54.2948214,29.8213095 C53.71339,29.6436499 53.051214,29.4579176 52.3082738,29.2641071 C51.4522775,29.0379949 50.7053107,28.7997731 50.0673512,28.5494345 C49.4293917,28.299096 48.9004584,27.9962716 48.4805357,27.6409524 C48.060613,27.2856331 47.741638,26.8697544 47.5236012,26.3933036 C47.3055644,25.9168528 47.1965476,25.3394677 47.1965476,24.661131 C47.1965476,23.8212855 47.3580539,23.0743187 47.6810714,22.4202083 C48.0040889,21.7660979 48.4441936,21.2169764 49.0013988,20.7728274 C49.558604,20.3286783 50.2167422,19.9935527 50.9758333,19.7674405 C51.7349244,19.5413282 52.5586067,19.4282738 53.4469048,19.4282738 C54.6097677,19.4282738 55.6837848,19.6140061 56.6689881,19.9854762 C57.6541914,20.3569463 58.5182503,20.8172393 59.2611905,21.366369 L58.0256548,23.5951786 Z M69.2181548,36.0958929 C68.8789864,36.2574016 68.4106181,36.4390962 67.8130357,36.6409821 C67.2154534,36.8428681 66.5775034,36.9438095 65.8991667,36.9438095 C65.4792439,36.9438095 65.0835534,36.8872823 64.7120833,36.7742262 C64.3406132,36.6611701 64.0135629,36.4915884 63.7309226,36.2654762 C63.4482823,36.0393639 63.2262111,35.7446149 63.0647024,35.3812202 C62.9031936,35.0178256 62.8224405,34.5777208 62.8224405,34.0608929 L62.8224405,26.1389286 L61.1508333,26.1389286 L61.1508333,24.0797024 L62.8224405,24.0797024 L62.8224405,19.9127976 L65.4873214,19.9127976 L65.4873214,24.0797024 L68.2491071,24.0797024 L68.2491071,26.1389286 L65.4873214,26.1389286 L65.4873214,33.2129762 C65.5196232,33.6652007 65.6609412,33.992251 65.9112798,34.1941369 C66.1616183,34.3960228 66.472518,34.4969643 66.8439881,34.4969643 C67.2154582,34.4969643 67.5707721,34.4323618 67.9099405,34.3031548 C68.2491088,34.1739478 68.4994436,34.0689687 68.6609524,33.9882143 L69.2181548,36.0958929 Z M74.4267857,36.9922619 C73.8130525,36.9922619 73.2437427,36.8913205 72.7188393,36.6894345 C72.1939359,36.4875486 71.7417182,36.2089502 71.3621726,35.853631 C70.9826271,35.4983117 70.6838404,35.0783953 70.4658036,34.593869 C70.2477668,34.1093428 70.13875,33.5844473 70.13875,33.0191667 C70.13875,32.4215843 70.2679551,31.8805381 70.526369,31.3960119 C70.784783,30.9114857 71.1522099,30.4915692 71.6286607,30.13625 C72.1051115,29.7809308 72.6703836,29.50637 73.324494,29.3125595 C73.9786045,29.118749 74.7013452,29.0218452 75.4927381,29.0218452 C76.0903204,29.0218452 76.6798185,29.0743348 77.26125,29.1793155 C77.8426815,29.2842962 78.367577,29.4256142 78.8359524,29.6032738 L78.8359524,28.731131 C78.8359524,27.7943802 78.569467,27.0635641 78.0364881,26.5386607 C77.5035092,26.0137573 76.7363542,25.7513095 75.735,25.7513095 C75.0566633,25.7513095 74.3904497,25.8764769 73.7363393,26.1268155 C73.0822289,26.377154 72.40794,26.7365056 71.7134524,27.204881 L70.8897619,25.5090476 C72.5210002,24.4107882 74.2168166,23.8616667 75.9772619,23.8616667 C77.7215563,23.8616667 79.0782094,24.3058091 80.0472619,25.1941071 C81.0163144,26.0824052 81.5008333,27.3583052 81.5008333,29.0218452 L81.5008333,33.6005952 C81.5008333,34.1658758 81.7350175,34.4565872 82.2033929,34.4727381 L82.2033929,36.75 C81.9449789,36.7984526 81.7229077,36.8307539 81.5371726,36.8469048 C81.3514376,36.8630556 81.169743,36.871131 80.9920833,36.871131 C80.4752554,36.871131 80.0755272,36.7419259 79.7928869,36.4835119 C79.5102466,36.2250979 79.3366273,35.89401 79.2720238,35.4902381 L79.1993452,34.6907738 C78.6340646,35.433714 77.9355498,36.0030238 77.1037798,36.3987202 C76.2720097,36.7944167 75.3796873,36.9922619 74.4267857,36.9922619 L74.4267857,36.9922619 Z M75.1535714,35.0299405 C75.7996064,35.0299405 76.4092928,34.9128484 76.9826488,34.6786607 C77.5560049,34.444473 78.0041849,34.1174227 78.3272024,33.6975 C78.6663707,33.4067843 78.8359524,33.0999222 78.8359524,32.7769048 L78.8359524,31.1052976 C78.3837279,30.927638 77.9032466,30.7903576 77.394494,30.6934524 C76.8857415,30.5965471 76.3891096,30.5480952 75.9045833,30.5480952 C74.9516817,30.5480952 74.1724137,30.7540158 73.566756,31.1658631 C72.9610982,31.5777104 72.6582738,32.1227942 72.6582738,32.801131 C72.6582738,33.4310151 72.892458,33.9599483 73.3608333,34.3879464 C73.8292087,34.8159446 74.4267821,35.0299405 75.1535714,35.0299405 L75.1535714,35.0299405 Z M91.8454167,26.3811905 C90.8117607,26.4134922 89.8952123,26.651714 89.095744,27.0958631 C88.2962758,27.5400121 87.726966,28.1739245 87.3877976,28.997619 L87.3877976,36.75 L84.7229167,36.75 L84.7229167,24.0797024 L87.1939881,24.0797024 L87.1939881,26.9141667 C87.6300617,26.0420194 88.1993715,25.3435046 88.9019345,24.8186012 C89.6044976,24.2936978 90.3595396,24.0070241 91.1670833,23.9585714 L91.5668155,23.9585714 C91.6717962,23.9585714 91.7646623,23.9666467 91.8454167,23.9827976 L91.8454167,26.3811905 Z M100.833333,36.0958929 C100.494165,36.2574016 100.025797,36.4390962 99.4282143,36.6409821 C98.8306319,36.8428681 98.192682,36.9438095 97.5143452,36.9438095 C97.0944225,36.9438095 96.698732,36.8872823 96.3272619,36.7742262 C95.9557918,36.6611701 95.6287415,36.4915884 95.3461012,36.2654762 C95.0634609,36.0393639 94.8413897,35.7446149 94.679881,35.3812202 C94.5183722,35.0178256 94.437619,34.5777208 94.437619,34.0608929 L94.437619,26.1389286 L92.7660119,26.1389286 L92.7660119,24.0797024 L94.437619,24.0797024 L94.437619,19.9127976 L97.1025,19.9127976 L97.1025,24.0797024 L99.8642857,24.0797024 L99.8642857,26.1389286 L97.1025,26.1389286 L97.1025,33.2129762 C97.1348017,33.6652007 97.2761198,33.992251 97.5264583,34.1941369 C97.7767969,34.3960228 98.0876966,34.4969643 98.4591667,34.4969643 C98.8306368,34.4969643 99.1859507,34.4323618 99.525119,34.3031548 C99.8642874,34.1739478 100.114622,34.0689687 100.276131,33.9882143 L100.833333,36.0958929 Z M120.020476,36.75 L117.355595,36.75 L117.355595,29.6517262 C117.355595,28.4565615 117.165825,27.588465 116.78628,27.0474107 C116.406734,26.5063564 115.8455,26.2358333 115.10256,26.2358333 C114.714939,26.2358333 114.327323,26.3085112 113.939702,26.453869 C113.552081,26.5992269 113.188692,26.8051475 112.849524,27.0716369 C112.510355,27.3381263 112.207531,27.6530637 111.941042,28.0164583 C111.674552,28.379853 111.468632,28.7795812 111.323274,29.2156548 L111.323274,36.75 L108.658393,36.75 L108.658393,24.0797024 L111.081012,24.0797024 L111.081012,26.6234524 C111.565538,25.767456 112.268091,25.0931671 113.18869,24.6005655 C114.10929,24.1079638 115.12678,23.8616667 116.24119,23.8616667 C117.000282,23.8616667 117.622081,23.998947 118.106607,24.2735119 C118.591133,24.5480768 118.974711,24.923579 119.257351,25.4000298 C119.539991,25.8764806 119.737837,26.425602 119.850893,27.0474107 C119.963949,27.6692194 120.020476,28.3273576 120.020476,29.0218452 L120.020476,36.75 Z M128.814583,36.9922619 C127.813229,36.9922619 126.912831,36.814605 126.113363,36.4592857 C125.313895,36.1039665 124.631531,35.6275228 124.06625,35.0299405 C123.500969,34.4323581 123.064902,33.7338433 122.758036,32.934375 C122.451169,32.1349067 122.297738,31.2991115 122.297738,30.4269643 C122.297738,29.5548171 122.451169,28.7190219 122.758036,27.9195536 C123.064902,27.1200853 123.505007,26.4215704 124.078363,25.8239881 C124.651719,25.2264057 125.338121,24.7499621 126.137589,24.3946429 C126.937058,24.0393236 127.82938,23.8616667 128.814583,23.8616667 C129.799787,23.8616667 130.692109,24.0393236 131.491577,24.3946429 C132.291046,24.7499621 132.977448,25.2264057 133.550804,25.8239881 C134.12416,26.4215704 134.564264,27.1200853 134.871131,27.9195536 C135.177998,28.7190219 135.331429,29.5548171 135.331429,30.4269643 C135.331429,31.2991115 135.177998,32.1349067 134.871131,32.934375 C134.564264,33.7338433 134.12416,34.4323581 133.550804,35.0299405 C132.977448,35.6275228 132.291046,36.1039665 131.491577,36.4592857 C130.692109,36.814605 129.799787,36.9922619 128.814583,36.9922619 L128.814583,36.9922619 Z M125.035298,30.4511905 C125.035298,31.0649237 125.132201,31.6301958 125.326012,32.1470238 C125.519822,32.6638518 125.786308,33.1120318 126.125476,33.4915774 C126.464645,33.8711229 126.864373,34.1699096 127.324673,34.3879464 C127.784973,34.6059832 128.281604,34.715 128.814583,34.715 C129.347562,34.715 129.844194,34.6059832 130.304494,34.3879464 C130.764794,34.1699096 131.164522,33.8670853 131.50369,33.4794643 C131.842859,33.0918433 132.109344,32.6396256 132.303155,32.1227976 C132.496965,31.6059696 132.593869,31.0406975 132.593869,30.4269643 C132.593869,29.8293819 132.496965,29.2681475 132.303155,28.743244 C132.109344,28.2183406 131.842859,27.7620853 131.50369,27.3744643 C131.164522,26.9868433 130.764794,26.6840189 130.304494,26.4659821 C129.844194,26.2479453 129.347562,26.1389286 128.814583,26.1389286 C128.297755,26.1389286 127.809199,26.251983 127.348899,26.4780952 C126.888599,26.7042075 126.488871,27.0110695 126.149702,27.3986905 C125.810534,27.7863115 125.540011,28.2425668 125.338125,28.7674702 C125.136239,29.2923737 125.035298,29.8536081 125.035298,30.4511905 L125.035298,30.4511905 Z M153.040774,24.0797024 L155.584524,24.0797024 L150.254762,36.75 L148.050179,36.75 L145.700238,30.8630357 L143.350298,36.75 L141.145714,36.75 L135.791726,24.0797024 L138.335476,24.0797024 L142.429702,34.1820238 L144.270893,29.4821429 L142.06631,24.1039286 L144.246667,24.1039286 L145.700238,28.0770238 L147.129583,24.1039286 L149.30994,24.1039286 L147.129583,29.4821429 L148.970774,34.1820238 L153.040774,24.0797024 Z" id="Start-now" fill="#FFFFFF"></path>
            </g>
        </g>
    </g>
</svg>