<?xml version="1.0" encoding="utf-8"?>
<!-- Svg Vector Icons : http://www.onlinewebfonts.com/icon -->
<!DOCTYPE svg PUBLIC "-//W3C//DTD SVG 1.1//EN" "http://www.w3.org/Graphics/SVG/1.1/DTD/svg11.dtd">
<svg version="1.1" xmlns="http://www.w3.org/2000/svg" xmlns:xlink="http://www.w3.org/1999/xlink" x="0px" y="0px" viewBox="0 0 1000 1000" enable-background="new 0 0 1000 1000" xml:space="preserve">
<metadata> Svg Vector Icons : http://www.onlinewebfonts.com/icon </metadata>
<g><g><g><circle cx="449" cy="51.7" r="2.9"/><circle cx="457.5" cy="51.7" r="2.9"/><circle cx="465.9" cy="51.7" r="2.9"/><circle cx="474.3" cy="51.7" r="2.9"/><circle cx="482.8" cy="51.7" r="2.9"/><circle cx="491.2" cy="51.7" r="2.9"/><circle cx="499.7" cy="51.7" r="2.9"/><circle cx="508.1" cy="51.7" r="2.9"/><circle cx="516.5" cy="51.7" r="2.9"/><circle cx="525" cy="51.7" r="2.9"/><circle cx="533.5" cy="51.7" r="2.9"/><circle cx="541.9" cy="51.7" r="2.9"/><circle cx="550.3" cy="51.7" r="2.9"/><circle cx="558.8" cy="51.7" r="2.9"/><path d="M717.2,10H282.8c-35.1,0-63.6,28.5-63.6,63.6v852.9c0,35.1,28.4,63.6,63.6,63.6h434.4c35.1,0,63.6-28.5,63.6-63.6V73.6C780.8,38.5,752.3,10,717.2,10z M672.8,47.7c3.9,0,7,3.1,7,7c0,3.9-3.2,7-7,7c-3.9,0-7-3.1-7-7C665.7,50.9,668.9,47.7,672.8,47.7z M424.8,41.7h157c5.6,0,10,4.5,10,10c0,5.5-4.5,10-10,10h-157c-5.6,0-10-4.5-10-10C414.8,46.2,419.3,41.7,424.8,41.7z M360.8,948.2h-15.5c-1,0-1.9-0.8-1.9-1.9c0-1,0.8-1.9,1.9-1.9h15.5c1,0,1.9,0.9,1.9,1.9C362.6,947.4,361.8,948.2,360.8,948.2z M360.8,940.7h-15.5c-1,0-1.9-0.8-1.9-1.9c0-1,0.8-1.9,1.9-1.9h15.5c1,0,1.9,0.8,1.9,1.9C362.6,939.8,361.8,940.7,360.8,940.7z M373.8,945.6c0,2.2-1.8,4-4,4c-2.2,0-4-1.8-4-4v-13.3h-25.4v13.3c0,2.2-1.8,4-4,4c-2.2,0-4-1.8-4-4v-17.3c0-2.2,1.8-4,4-4h33.5c2.2,0,4,1.8,4,4V945.6L373.8,945.6z M550.3,944.3c0,8.8-7.1,15.9-15.9,15.9h-69.5c-8.8,0-15.9-7.1-15.9-15.9v-13.9c0-8.8,7.1-15.9,15.9-15.9h69.5c8.8,0,15.9,7.1,15.9,15.9V944.3z M654.1,950.3h-12.6c-2.2,0-4-1.8-4-4c0-2.2,1.8-4,4-4h12.6c2.7,0,4.9-2.1,4.9-4.7c0-2.6-2.2-4.7-4.9-4.7h-10.6c-0.4,0.6-0.9,0.8-1.8,0.9c-0.2,0.1-0.6-0.1-0.9-0.2l-6.6-2.8c-0.8-0.3-1.3-1.1-1.3-2c0-0.9,0.5-1.7,1.3-2l6.6-2.8c0.8-0.3,1.7-0.2,2.4,0.5c0.1,0.1,0.2,0.2,0.2,0.3h10.7c7.1,0,12.9,5.7,12.9,12.8C667,944.6,661.2,950.3,654.1,950.3z M738.4,894.7h-482V108h482V894.7z"/></g></g><g></g><g></g><g></g><g></g><g></g><g></g><g></g><g></g><g></g><g></g><g></g><g></g><g></g><g></g><g></g></g>
</svg>