<?xml version="1.0" encoding="UTF-8" standalone="no"?>
<svg viewBox="0 0 574 468" version="1.1" xmlns="http://www.w3.org/2000/svg" xmlns:xlink="http://www.w3.org/1999/xlink" xmlns:sketch="http://www.bohemiancoding.com/sketch/ns">
    <defs>
        <linearGradient x1="50%" y1="0%" x2="50%" y2="94.9176059%" id="linearGradient-1">
            <stop stop-color="#363636" offset="0%"></stop>
            <stop stop-color="#4D4D4D" offset="100%"></stop>
        </linearGradient>
        <rect id="history-bg" x="0" y="127" width="574" height="203" rx="20"></rect>
        <path id="path-4" d="M13.4064253,13.2634696 L13.4064253,87.5207632 L63.7113394,87.5207632"></path>
        <path id="path-5" d="M102.31594,32.0710466 L102.31594,79.3283403 L142.620855,79.3283403 L154.903762,89.4302784"></path>
        <ellipse id="path-6" cx="13.3923445" cy="13.1653321" rx="13.0449761" ry="12.8346679"></ellipse>
        <linearGradient x1="6.77183498%" y1="-8.88643775%" x2="79.3254635%" y2="50%" id="linearGradient-8">
            <stop stop-color="#FFFFFF" stop-opacity="0" offset="0%"></stop>
            <stop stop-color="#FFFFFF" offset="100%"></stop>
        </linearGradient>
        <ellipse id="path-9" cx="13.3923445" cy="13.1653321" rx="13.0449761" ry="12.8346679"></ellipse>
        <path id="blue-path" d="M13.4064253,13.2634696 L13.4064253,167.520763 L163.711339,167.520763"></path>
        <path id="blue-path-2" d="M162.31594,72.0710466 L162.31594,119.32834 L282.620855,119.32834 L294.903762,129.430278"></path>
        <ellipse id="path-13" cx="13.3923445" cy="13.1653321" rx="13.0449761" ry="12.8346679"></ellipse>
        <ellipse id="path-15" cx="13.3923445" cy="13.1653321" rx="13.0449761" ry="12.8346679"></ellipse>
        <path id="yellow-path" d="M13.4064253,13.2634696 L13.4064253,87.5207632 L52.7113394,87.5207632"></path>
        <path id="path-18" d="M85.4573943,83.2125006 L85.4573943,130.469794 L124.012618,130.469794 L135.762308,140.571732"></path>
        <ellipse id="path-19" cx="13.3923445" cy="13.1653321" rx="13.0449761" ry="12.8346679"></ellipse>
        <ellipse id="path-21" cx="13.3923445" cy="13.1653321" rx="13.0449761" ry="12.8346679"></ellipse>
        <ellipse id="path-23" cx="13.3923445" cy="13.1653321" rx="13.0449761" ry="12.8346679"></ellipse>
        <ellipse id="path-25" cx="13.3923445" cy="13.1653321" rx="13.0449761" ry="12.8346679"></ellipse>
        <ellipse id="path-27" cx="13.3923445" cy="13.1653321" rx="13.0449761" ry="12.8346679"></ellipse>
    </defs>
    <g id="Page-1" stroke="none" stroke-width="1" fill="none" fill-rule="evenodd" sketch:type="MSPage">
        <g id="[project_R]web-variant" sketch:type="MSLayerGroup" transform="translate(-135.000000, -996.000000)">
            <g id="Project-R" transform="translate(0.000000, 338.000000)">
                <g id="ugly-history" transform="translate(135.000000, 658.000000)">
                    <mask id="mask-3" sketch:name="element bg" fill="white">
                        <use xlink:href="#history-bg"></use>
                    </mask>
                    <use id="element-bg" fill="url(#linearGradient-1)" sketch:type="MSShapeGroup" xlink:href="#history-bg"></use>
                    <path d="M-9.55055982,129.906251 L511.732926,129.906251 L511.732926,153.994938 L525.619725,166.370327" id="Path-2258" stroke="#979797" stroke-width="7" sketch:type="MSShapeGroup" mask="url(#mask-3)"></path>
                    <path d="M-11.9081726,319 L615,319" id="Line" stroke="#707070" stroke-width="4" stroke-linecap="round" stroke-dasharray="10,12" sketch:type="MSShapeGroup" mask="url(#mask-31)"></path>
                    <g id="merge-blue-1" transform="translate(17.000000, 117.000000)">
                        <g id="Path-2227">
                            <use stroke="#20A5FF" stroke-width="7" sketch:type="MSShapeGroup" xlink:href="#path-4"></use>
                            <use stroke="none" xlink:href="#path-4"></use>
                        </g>
                        <g id="Path-2227">
                            <use stroke="#20A5FF" stroke-width="7" sketch:type="MSShapeGroup" transform="translate(128.609851, 60.750662) rotate(-90.000000) translate(-128.609851, -60.750662) " xlink:href="#path-5"></use>
                            <use stroke="none" xlink:href="#path-5"></use>
                        </g>
                        <path d="M150.724437,19.2560664 L150.724437,38.5307514 L172.617035,29.4513551 L150.724437,19.2560664 Z" id="Path-2228" fill="#20A5FF" sketch:type="MSShapeGroup" transform="translate(161.670736, 28.893409) rotate(-45.000000) translate(-161.670736, -28.893409) "></path>
                        <g id="blue">
                            <mask id="mask-7" sketch:name="blue" fill="white">
                                <use xlink:href="#path-6"></use>
                            </mask>
                            <use fill="#20A5FF" sketch:type="MSShapeGroup" xlink:href="#path-6"></use>
                            <ellipse id="Oval-51" opacity="0.268248601" fill="url(#linearGradient-8)" sketch:type="MSShapeGroup" mask="url(#mask-7)" cx="9.19109485" cy="8.33345709" rx="15.500501" ry="15.2506054"></ellipse>
                            <ellipse id="Oval-53" opacity="0.436042444" fill="#FFFFFF" sketch:type="MSShapeGroup" mask="url(#mask-7)" cx="11.0998818" cy="10.2020337" rx="3.68328736" ry="3.62390624"></ellipse>
                        </g>
                        <g id="blue" transform="translate(84.000000, 73.000000)">
                            <mask id="mask-10" sketch:name="blue" fill="white">
                                <use xlink:href="#path-9"></use>
                            </mask>
                            <use fill="#009EFF" sketch:type="MSShapeGroup" xlink:href="#path-9"></use>
                            <ellipse id="Oval-51" opacity="0.268248601" fill="url(#linearGradient-8)" sketch:type="MSShapeGroup" mask="url(#mask-10)" cx="9.19109485" cy="8.33345709" rx="15.500501" ry="15.2506054"></ellipse>
                            <ellipse id="Oval-53" opacity="0.436042444" fill="#FFFFFF" sketch:type="MSShapeGroup" mask="url(#mask-10)" cx="11.0998818" cy="10.2020337" rx="3.68328736" ry="3.62390624"></ellipse>
                        </g>
                        <path d="M59.7244374,77.2560664 L59.7244374,96.5307514 L81.6170346,87.4513551 L59.7244374,77.2560664 Z" id="Path-2228" fill="#20A5FF" sketch:type="MSShapeGroup"></path>
                    </g>
                    <g id="merge-blue-2" transform="translate(226.000000, 114.000000)">
                        <g id="Path-2227">
                            <use stroke="#20A5FF" stroke-width="7" sketch:type="MSShapeGroup" xlink:href="#blue-path"></use>
                            <use stroke="none" xlink:href="#blue-path"></use>
                        </g>
                        <g id="Path-2227">
                            <use stroke="#20A5FF" stroke-width="7" sketch:type="MSShapeGroup" transform="translate(228.609851, 100.750662) rotate(-90.000000) translate(-228.609851, -100.750662) " xlink:href="#blue-path-2"></use>
                            <use stroke="none" xlink:href="#blue-path-2"></use>
                        </g>
                        <path d="M250.724437,19.2560664 L250.724437,38.5307514 L272.617035,29.4513551 L250.724437,19.2560664 Z" id="Path-2228" fill="#20A5FF" sketch:type="MSShapeGroup" transform="translate(261.670736, 28.893409) rotate(-45.000000) translate(-261.670736, -28.893409) "></path>
                        <g id="blue">
                            <mask id="mask-14" sketch:name="blue" fill="white">
                                <use xlink:href="#path-13"></use>
                            </mask>
                            <use fill="#20A5FF" sketch:type="MSShapeGroup" xlink:href="#path-13"></use>
                            <ellipse id="Oval-51" opacity="0.268248601" fill="url(#linearGradient-8)" sketch:type="MSShapeGroup" mask="url(#mask-14)" cx="9.19109485" cy="8.33345709" rx="15.500501" ry="15.2506054"></ellipse>
                            <ellipse id="Oval-53" opacity="0.436042444" fill="#FFFFFF" sketch:type="MSShapeGroup" mask="url(#mask-14)" cx="11.0998818" cy="10.2020337" rx="3.68328736" ry="3.62390624"></ellipse>
                        </g>
                        <g id="blue" transform="translate(184.000000, 153.000000)">
                            <mask id="mask-16" sketch:name="blue" fill="white">
                                <use xlink:href="#path-15"></use>
                            </mask>
                            <use fill="#009EFF" sketch:type="MSShapeGroup" xlink:href="#path-15"></use>
                            <ellipse id="Oval-51" opacity="0.268248601" fill="url(#linearGradient-8)" sketch:type="MSShapeGroup" mask="url(#mask-16)" cx="9.19109485" cy="8.33345709" rx="15.500501" ry="15.2506054"></ellipse>
                            <ellipse id="Oval-53" opacity="0.436042444" fill="#FFFFFF" sketch:type="MSShapeGroup" mask="url(#mask-16)" cx="11.0998818" cy="10.2020337" rx="3.68328736" ry="3.62390624"></ellipse>
                        </g>
                        <path d="M157.724437,158.256066 L157.724437,177.530751 L179.617035,168.451355 L157.724437,158.256066 Z" id="Path-2228" fill="#20A5FF" sketch:type="MSShapeGroup"></path>
                    </g>
                    <g id="merge-yellow-1" transform="translate(264.000000, 114.000000)">
                        <g id="Path-2227">
                            <use stroke="#FFAA00" stroke-width="7" sketch:type="MSShapeGroup" xlink:href="#yellow-path"></use>
                            <use stroke="none" xlink:href="#yellow-path"></use>
                        </g>
                        <g id="Path-2227">
                            <use stroke="#FFAA00" stroke-width="7" sketch:type="MSShapeGroup" transform="translate(110.609851, 111.892116) scale(1, -1) rotate(-90.000000) translate(-110.609851, -111.892116) " xlink:href="#path-18"></use>
                            <use stroke="none" xlink:href="#path-18"></use>
                        </g>
                        <path d="M131.724437,131.256066 L131.724437,150.530751 L153.617035,141.451355 L131.724437,131.256066 Z" id="Path-2228" fill="#FFAA00" sketch:type="MSShapeGroup" transform="translate(142.670736, 140.893409) scale(1, -1) rotate(-45.000000) translate(-142.670736, -140.893409) "></path>
                        <g id="blue">
                            <mask id="mask-20" sketch:name="blue" fill="white">
                                <use xlink:href="#path-19"></use>
                            </mask>
                            <use fill="#FFAA00" sketch:type="MSShapeGroup" xlink:href="#path-19"></use>
                            <ellipse id="Oval-51" opacity="0.268248601" fill="url(#linearGradient-8)" sketch:type="MSShapeGroup" mask="url(#mask-20)" cx="9.19109485" cy="8.33345709" rx="15.500501" ry="15.2506054"></ellipse>
                            <ellipse id="Oval-53" opacity="0.436042444" fill="#FFFFFF" sketch:type="MSShapeGroup" mask="url(#mask-20)" cx="11.0998818" cy="10.2020337" rx="3.68328736" ry="3.62390624"></ellipse>
                        </g>
                        <g id="blue" transform="translate(76.000000, 73.000000)">
                            <mask id="mask-22" sketch:name="blue" fill="white">
                                <use xlink:href="#path-21"></use>
                            </mask>
                            <use fill="#FFAA00" sketch:type="MSShapeGroup" xlink:href="#path-21"></use>
                            <ellipse id="Oval-51" opacity="0.268248601" fill="url(#linearGradient-8)" sketch:type="MSShapeGroup" mask="url(#mask-22)" cx="9.19109485" cy="8.33345709" rx="15.500501" ry="15.2506054"></ellipse>
                            <ellipse id="Oval-53" opacity="0.436042444" fill="#FFFFFF" sketch:type="MSShapeGroup" mask="url(#mask-22)" cx="11.0998818" cy="10.2020337" rx="3.68328736" ry="3.62390624"></ellipse>
                        </g>
                        <path d="M49.7244374,77.2560664 L49.7244374,96.5307514 L71.6170346,87.4513551 L49.7244374,77.2560664 Z" id="Path-2228" fill="#FFAA00" sketch:type="MSShapeGroup"></path>
                    </g>
                    <g id="merge-red-1" transform="translate(189.000000, 0.000000)">
                        <path d="M13.4064253,16.2634696 L13.4064253,130.520763 L63.7113394,130.520763" id="Path-2227" stroke="#F95257" stroke-width="7" sketch:type="MSShapeGroup" transform="translate(38.558882, 73.392116) scale(1, -1) translate(-38.558882, -73.392116) "></path>
                        <path d="M99.9302355,109.044573 L147.187529,109.044573 L147.187529,28.7396594 L157.289467,16.4567515" id="Path-2227" stroke="#F95257" stroke-width="7" sketch:type="MSShapeGroup" transform="translate(128.609851, 62.750662) scale(1, -1) translate(-128.609851, -62.750662) "></path>
                        <path d="M150.724437,102.256066 L150.724437,121.530751 L172.617035,112.451355 L150.724437,102.256066 Z" id="Path-2228" fill="#F95257" sketch:type="MSShapeGroup" transform="translate(161.670736, 111.893409) scale(1, -1) rotate(-45.000000) translate(-161.670736, -111.893409) "></path>
                        <g id="blue" transform="translate(0.000000, 113.000000)">
                            <mask id="mask-24" sketch:name="blue" fill="white">
                                <use xlink:href="#path-23"></use>
                            </mask>
                            <use fill="#F95257" sketch:type="MSShapeGroup" xlink:href="#path-23"></use>
                            <ellipse id="Oval-51" opacity="0.268248601" fill="url(#linearGradient-8)" sketch:type="MSShapeGroup" mask="url(#mask-24)" cx="9.19109485" cy="8.33345709" rx="15.500501" ry="15.2506054"></ellipse>
                            <ellipse id="Oval-53" opacity="0.436042444" fill="#FFFFFF" sketch:type="MSShapeGroup" mask="url(#mask-24)" cx="11.0998818" cy="10.2020337" rx="3.68328736" ry="3.62390624"></ellipse>
                        </g>
                        <g id="blue" transform="translate(84.000000, 0.000000)">
                            <mask id="mask-26" sketch:name="blue" fill="white">
                                <use xlink:href="#path-25"></use>
                            </mask>
                            <use fill="#F95257" sketch:type="MSShapeGroup" xlink:href="#path-25"></use>
                            <ellipse id="Oval-51" opacity="0.268248601" fill="url(#linearGradient-8)" sketch:type="MSShapeGroup" mask="url(#mask-26)" cx="9.19109485" cy="8.33345709" rx="15.500501" ry="15.2506054"></ellipse>
                            <ellipse id="Oval-53" opacity="0.436042444" fill="#FFFFFF" sketch:type="MSShapeGroup" mask="url(#mask-26)" cx="11.0998818" cy="10.2020337" rx="3.68328736" ry="3.62390624"></ellipse>
                        </g>
                        <path d="M59.7244374,5.25606645 L59.7244374,24.5307514 L81.6170346,15.4513551 L59.7244374,5.25606645 Z" id="Path-2228" fill="#F95257" sketch:type="MSShapeGroup"></path>
                    </g>
                    <g id="black" transform="translate(517.000000, 155.000000)">
                        <mask id="mask-28" sketch:name="blue" fill="white">
                            <use xlink:href="#path-27"></use>
                        </mask>
                        <use id="blue" fill="#565656" sketch:type="MSShapeGroup" xlink:href="#path-27"></use>
                        <ellipse id="Oval-51" opacity="0.268248601" fill="url(#linearGradient-8)" sketch:type="MSShapeGroup" mask="url(#mask-28)" cx="9.19109485" cy="8.33345709" rx="15.500501" ry="15.2506054"></ellipse>
                        <ellipse id="Oval-53" opacity="0.436042444" fill="#FFFFFF" sketch:type="MSShapeGroup" mask="url(#mask-28)" cx="11.0998818" cy="10.2020337" rx="3.68328736" ry="3.62390624"></ellipse>
                    </g>
                    <path d="M229.612,442.576 C231.964012,442.576 233.943992,442.096005 235.552,441.136 C237.160008,440.175995 238.455995,438.928008 239.44,437.392 C240.424005,435.855992 241.119998,434.09201 241.528,432.1 C241.936002,430.10799 242.14,428.056011 242.14,425.944 L242.14,399.88 L252.004,399.88 L252.004,425.944 C252.004,429.448018 251.584004,432.735985 250.744,435.808 C249.903996,438.880015 248.584009,441.567988 246.784,443.872 C244.983991,446.176012 242.668014,447.999993 239.836,449.344 C237.003986,450.688007 233.62002,451.36 229.684,451.36 C225.60398,451.36 222.136014,450.652007 219.28,449.236 C216.423986,447.819993 214.108009,445.948012 212.332,443.62 C210.555991,441.291988 209.272004,438.592015 208.48,435.52 C207.687996,432.447985 207.292,429.256017 207.292,425.944 L207.292,399.88 L217.228,399.88 L217.228,425.944 C217.228,428.104011 217.431998,430.17999 217.84,432.172 C218.248002,434.16401 218.943995,435.927992 219.928,437.464 C220.912005,439.000008 222.195992,440.235995 223.78,441.172 C225.364008,442.108005 227.307988,442.576 229.612,442.576 L229.612,442.576 Z M275.188,451.216 C272.643987,451.216 270.34001,450.712005 268.276,449.704 C266.21199,448.695995 264.424008,447.316009 262.912,445.564 C261.399992,443.811991 260.236004,441.784012 259.42,439.48 C258.603996,437.175988 258.196,434.728013 258.196,432.136 C258.196,429.399986 258.627996,426.856012 259.492,424.504 C260.356004,422.151988 261.555992,420.088009 263.092,418.312 C264.628008,416.535991 266.475989,415.144005 268.636,414.136 C270.796011,413.127995 273.171987,412.624 275.764,412.624 C278.692015,412.624 281.259989,413.283993 283.468,414.604 C285.676011,415.924007 287.499993,417.687989 288.94,419.896 L288.94,413.272 L297.364,413.272 L297.364,449.2 C297.364,451.984014 296.836005,454.479989 295.78,456.688 C294.723995,458.896011 293.272009,460.767992 291.424,462.304 C289.575991,463.840008 287.368013,465.015996 284.8,465.832 C282.231987,466.648004 279.436015,467.056 276.412,467.056 C272.283979,467.056 268.816014,466.372007 266.008,465.004 C263.199986,463.635993 260.78801,461.704012 258.772,459.208 L264.028,454.096 C265.468007,455.872009 267.279989,457.263995 269.464,458.272 C271.648011,459.280005 273.963988,459.784 276.412,459.784 C277.900007,459.784 279.327993,459.580002 280.696,459.172 C282.064007,458.763998 283.275995,458.128004 284.332,457.264 C285.388005,456.399996 286.215997,455.296007 286.816,453.952 C287.416003,452.607993 287.716,451.024009 287.716,449.2 L287.716,444.448 C286.467994,446.608011 284.716011,448.275994 282.46,449.452 C280.203989,450.628006 277.780013,451.216 275.188,451.216 L275.188,451.216 Z M278.428,443.512 C279.484005,443.512 280.491995,443.344002 281.452,443.008 C282.412005,442.671998 283.299996,442.216003 284.116,441.64 C284.932004,441.063997 285.651997,440.392004 286.276,439.624 C286.900003,438.855996 287.379998,438.040004 287.716,437.176 L287.716,428.176 C286.851996,425.967989 285.496009,424.192007 283.648,422.848 C281.799991,421.503993 279.86801,420.832 277.852,420.832 C276.363993,420.832 275.020006,421.155997 273.82,421.804 C272.619994,422.452003 271.588004,423.315995 270.724,424.396 C269.859996,425.476005 269.200002,426.711993 268.744,428.104 C268.287998,429.496007 268.06,430.935993 268.06,432.424 C268.06,433.960008 268.323997,435.399993 268.852,436.744 C269.380003,438.088007 270.111995,439.263995 271.048,440.272 C271.984005,441.280005 273.075994,442.071997 274.324,442.648 C275.572006,443.224003 276.939993,443.512 278.428,443.512 L278.428,443.512 Z M306.004,398.44 L315.652,398.44 L315.652,438.904 C315.652,440.296007 315.987997,441.375996 316.66,442.144 C317.332003,442.912004 318.291994,443.296 319.54,443.296 C320.116003,443.296 320.751997,443.200001 321.448,443.008 C322.144003,442.815999 322.803997,442.576001 323.428,442.288 L324.724,449.632 C323.427994,450.256003 321.916009,450.735998 320.188,451.072 C318.459991,451.408002 316.900007,451.576 315.508,451.576 C312.483985,451.576 310.144008,450.772008 308.488,449.164 C306.831992,447.555992 306.004,445.264015 306.004,442.288 L306.004,398.44 Z M328.9,458.344 C329.716004,458.584001 330.507996,458.763999 331.276,458.884 C332.044004,459.004001 332.691997,459.064 333.22,459.064 C333.844003,459.064 334.419997,458.944001 334.948,458.704 C335.476003,458.463999 335.955998,458.044003 336.388,457.444 C336.820002,456.843997 337.251998,456.016005 337.684,454.96 C338.116002,453.903995 338.571998,452.584008 339.052,451 L324.148,413.272 L334.084,413.272 L344.308,442.648 L353.38,413.272 L362.452,413.272 L346.612,458.488 C345.699995,461.128013 344.140011,463.287992 341.932,464.968 C339.723989,466.648008 336.988016,467.488 333.724,467.488 C332.955996,467.488 332.176004,467.428001 331.384,467.308 C330.591996,467.187999 329.764004,466.984001 328.9,466.696 L328.9,458.344 Z" id="Ugly" fill="#F95257" sketch:type="MSShapeGroup"></path>
                    <path d="M406.02,415 L400.66,415 L400.66,403.24 C400.66,401.586658 400.353336,400.366671 399.74,399.58 C399.126664,398.793329 398.260006,398.4 397.14,398.4 C396.659998,398.4 396.153336,398.506666 395.62,398.72 C395.086664,398.933334 394.580002,399.233331 394.1,399.62 C393.619998,400.006669 393.180002,400.466664 392.78,401 C392.379998,401.533336 392.086668,402.119997 391.9,402.76 L391.9,415 L386.54,415 L386.54,385.8 L391.9,385.8 L391.9,397.92 C392.673337,396.559993 393.719993,395.513337 395.04,394.78 C396.360007,394.046663 397.819992,393.68 399.42,393.68 C400.780007,393.68 401.886662,393.913331 402.74,394.38 C403.593338,394.846669 404.259998,395.466663 404.74,396.24 C405.220002,397.013337 405.553332,397.893328 405.74,398.88 C405.926668,399.866672 406.02,400.879995 406.02,401.92 L406.02,415 Z M410.7,415 L410.7,394.04 L416.06,394.04 L416.06,415 L410.7,415 Z M410.7,391.12 L410.7,385.8 L416.06,385.8 L416.06,391.12 L410.7,391.12 Z M428.82,415.4 C427.059991,415.4 425.340008,415.120003 423.66,414.56 C421.979992,413.999997 420.540006,413.200005 419.34,412.16 L421.34,408.8 C422.620006,409.706671 423.866661,410.393331 425.08,410.86 C426.293339,411.326669 427.499994,411.56 428.7,411.56 C429.766672,411.56 430.606664,411.360002 431.22,410.96 C431.833336,410.559998 432.14,409.98667 432.14,409.24 C432.14,408.49333 431.780004,407.946668 431.06,407.6 C430.339996,407.253332 429.166675,406.853336 427.54,406.4 C426.179993,406.026665 425.020005,405.666668 424.06,405.32 C423.099995,404.973332 422.32667,404.580002 421.74,404.14 C421.15333,403.699998 420.726668,403.193336 420.46,402.62 C420.193332,402.046664 420.06,401.360004 420.06,400.56 C420.06,399.493328 420.266665,398.533338 420.68,397.68 C421.093335,396.826662 421.67333,396.100003 422.42,395.5 C423.16667,394.899997 424.039995,394.440002 425.04,394.12 C426.040005,393.799998 427.126661,393.64 428.3,393.64 C429.873341,393.64 431.34666,393.866664 432.72,394.32 C434.09334,394.773336 435.353328,395.506662 436.5,396.52 L434.34,399.76 C433.273328,398.959996 432.240005,398.373335 431.24,398 C430.239995,397.626665 429.246672,397.44 428.26,397.44 C427.353329,397.44 426.593336,397.626665 425.98,398 C425.366664,398.373335 425.06,398.973329 425.06,399.8 C425.06,400.173335 425.133333,400.479999 425.28,400.72 C425.426667,400.960001 425.659998,401.173332 425.98,401.36 C426.300002,401.546668 426.719997,401.726666 427.24,401.9 C427.760003,402.073334 428.406663,402.253332 429.18,402.44 C430.620007,402.813335 431.853328,403.186665 432.88,403.56 C433.906672,403.933335 434.746663,404.359998 435.4,404.84 C436.053337,405.320002 436.533332,405.87333 436.84,406.5 C437.146668,407.12667 437.3,407.879996 437.3,408.76 C437.3,410.813344 436.540008,412.433327 435.02,413.62 C433.499992,414.806673 431.433346,415.4 428.82,415.4 L428.82,415.4 Z M453.34,413.92 C452.619996,414.240002 451.740005,414.559998 450.7,414.88 C449.659995,415.200002 448.566672,415.36 447.42,415.36 C446.67333,415.36 445.973337,415.266668 445.32,415.08 C444.666663,414.893332 444.093336,414.593335 443.6,414.18 C443.106664,413.766665 442.713335,413.233337 442.42,412.58 C442.126665,411.926663 441.98,411.133338 441.98,410.2 L441.98,398.16 L439.22,398.16 L439.22,394.04 L441.98,394.04 L441.98,387.24 L447.34,387.24 L447.34,394.04 L451.74,394.04 L451.74,398.16 L447.34,398.16 L447.34,408.4 C447.34,409.14667 447.533331,409.673332 447.92,409.98 C448.306669,410.286668 448.779997,410.44 449.34,410.44 C449.900003,410.44 450.446664,410.346668 450.98,410.16 C451.513336,409.973332 451.939998,409.813334 452.26,409.68 L453.34,413.92 Z M465.3,415.4 C463.593325,415.4 462.060007,415.10667 460.7,414.52 C459.339993,413.93333 458.186671,413.140005 457.24,412.14 C456.293329,411.139995 455.566669,409.986673 455.06,408.68 C454.553331,407.373327 454.3,406.000007 454.3,404.56 C454.3,403.093326 454.553331,401.706673 455.06,400.4 C455.566669,399.093327 456.293329,397.940005 457.24,396.94 C458.186671,395.939995 459.339993,395.14667 460.7,394.56 C462.060007,393.97333 463.593325,393.68 465.3,393.68 C467.006675,393.68 468.533327,393.97333 469.88,394.56 C471.226673,395.14667 472.373329,395.939995 473.32,396.94 C474.266671,397.940005 474.993331,399.093327 475.5,400.4 C476.006669,401.706673 476.26,403.093326 476.26,404.56 C476.26,406.000007 476.006669,407.373327 475.5,408.68 C474.993331,409.986673 474.273338,411.139995 473.34,412.14 C472.406662,413.140005 471.260007,413.93333 469.9,414.52 C468.539993,415.10667 467.006675,415.4 465.3,415.4 L465.3,415.4 Z M459.82,404.56 C459.82,405.493338 459.959999,406.339996 460.24,407.1 C460.520001,407.860004 460.906664,408.519997 461.4,409.08 C461.893336,409.640003 462.47333,410.073332 463.14,410.38 C463.80667,410.686668 464.526663,410.84 465.3,410.84 C466.073337,410.84 466.79333,410.686668 467.46,410.38 C468.12667,410.073332 468.706664,409.640003 469.2,409.08 C469.693336,408.519997 470.079999,407.853337 470.36,407.08 C470.640001,406.306663 470.78,405.453338 470.78,404.52 C470.78,403.613329 470.640001,402.773337 470.36,402 C470.079999,401.226663 469.693336,400.560003 469.2,400 C468.706664,399.439997 468.12667,399.006668 467.46,398.7 C466.79333,398.393332 466.073337,398.24 465.3,398.24 C464.526663,398.24 463.80667,398.399998 463.14,398.72 C462.47333,399.040002 461.893336,399.479997 461.4,400.04 C460.906664,400.600003 460.520001,401.266663 460.24,402.04 C459.959999,402.813337 459.82,403.653329 459.82,404.56 L459.82,404.56 Z M492.34,398.68 C490.713325,398.706667 489.260006,399.019997 487.98,399.62 C486.699994,400.220003 485.780003,401.119994 485.22,402.32 L485.22,415 L479.86,415 L479.86,394.04 L484.78,394.04 L484.78,398.52 C485.153335,397.799996 485.593331,397.153336 486.1,396.58 C486.606669,396.006664 487.15333,395.506669 487.74,395.08 C488.32667,394.653331 488.919997,394.326668 489.52,394.1 C490.120003,393.873332 490.699997,393.76 491.26,393.76 L491.92,393.76 C492.066667,393.76 492.206666,393.773333 492.34,393.8 L492.34,398.68 Z M495.78,419.08 C496.233336,419.213334 496.673331,419.313333 497.1,419.38 C497.526669,419.446667 497.886665,419.48 498.18,419.48 C498.526668,419.48 498.846665,419.413334 499.14,419.28 C499.433335,419.146666 499.699999,418.913335 499.94,418.58 C500.180001,418.246665 500.419999,417.78667 500.66,417.2 C500.900001,416.61333 501.153332,415.880004 501.42,415 L493.14,394.04 L498.66,394.04 L504.34,410.36 L509.38,394.04 L514.42,394.04 L505.62,419.16 C505.113331,420.626674 504.246673,421.826662 503.02,422.76 C501.793327,423.693338 500.273342,424.16 498.46,424.16 C498.033331,424.16 497.600002,424.126667 497.16,424.06 C496.719998,423.993333 496.260002,423.880001 495.78,423.72 L495.78,419.08 Z" id="history" opacity="0.35" fill="#444444" sketch:type="MSShapeGroup"></path>
                </g>
            </g>
        </g>
    </g>
</svg>
